<?xml version="1.0" encoding="UTF-8" standalone="no"?>
<!-- Created with Inkscape (http://www.inkscape.org/) -->

<svg
   xmlns:dc="http://purl.org/dc/elements/1.1/"
   xmlns:cc="http://creativecommons.org/ns#"
   xmlns:rdf="http://www.w3.org/1999/02/22-rdf-syntax-ns#"
   xmlns:svg="http://www.w3.org/2000/svg"
   xmlns="http://www.w3.org/2000/svg"
   xmlns:sodipodi="http://sodipodi.sourceforge.net/DTD/sodipodi-0.dtd"
   xmlns:inkscape="http://www.inkscape.org/namespaces/inkscape"
   width="70.338127mm"
   height="69.73056mm"
   viewBox="0 0 70.338127 69.73056"
   version="1.1"
   id="svg965"
   inkscape:version="0.92.4 (unknown)"
   sodipodi:docname="logos.svg">
  <defs
     id="defs959" />
  <sodipodi:namedview
     id="base"
     pagecolor="#ffffff"
     bordercolor="#666666"
     borderopacity="1.0"
     inkscape:pageopacity="0.0"
     inkscape:pageshadow="2"
     inkscape:zoom="0.35"
     inkscape:cx="97.208165"
     inkscape:cy="503.20288"
     inkscape:document-units="mm"
     inkscape:current-layer="layer1"
     showgrid="false"
     inkscape:window-width="1366"
     inkscape:window-height="716"
     inkscape:window-x="0"
     inkscape:window-y="0"
     inkscape:window-maximized="1" />
  <metadata
     id="metadata962">
    <rdf:RDF>
      <cc:Work
         rdf:about="">
        <dc:format>image/svg+xml</dc:format>
        <dc:type
           rdf:resource="http://purl.org/dc/dcmitype/StillImage" />
        <dc:title></dc:title>
      </cc:Work>
    </rdf:RDF>
  </metadata>
  <g
     inkscape:label="Layer 1"
     inkscape:groupmode="layer"
     id="layer1"
     transform="translate(50.288113,-212.24187)">
    <rect
       style="opacity:1;fill:#f9f9f9;fill-opacity:1;fill-rule:nonzero;stroke:none;stroke-width:1.59268892;stroke-linecap:square;stroke-linejoin:miter;stroke-miterlimit:4;stroke-dasharray:none;stroke-opacity:1;paint-order:markers stroke fill"
       id="rect1307"
       width="30.000002"
       height="30.000002"
       x="-9.9499846"
       y="251.97243"
       inkscape:export-xdpi="423.33331"
       inkscape:export-ydpi="423.33331" />
    <rect
       style="opacity:1;fill:#1a1a1a;fill-opacity:1;fill-rule:nonzero;stroke:none;stroke-width:1.59268892;stroke-linecap:square;stroke-linejoin:miter;stroke-miterlimit:4;stroke-dasharray:none;stroke-opacity:1;paint-order:markers stroke fill"
       id="rect1261"
       width="30.000002"
       height="30.000002"
       x="-50.288113"
       y="212.24187" />
    <rect
       y="213.34325"
       x="-9.9499884"
       height="30.000002"
       width="30.000002"
       id="rect1220"
       style="opacity:1;fill:#1a1a1a;fill-opacity:1;fill-rule:nonzero;stroke:none;stroke-width:1.59268892;stroke-linecap:square;stroke-linejoin:miter;stroke-miterlimit:4;stroke-dasharray:none;stroke-opacity:1;paint-order:markers stroke fill" />
    <g
       transform="translate(36.889204,6.2907618)"
       id="g1233"
       style="fill:#ff8383;fill-opacity:1">
      <path
         style="fill:#ff8383;fill-opacity:1;fill-rule:evenodd"
         inkscape:connector-curvature="0"
         d="m 149.76467,51.091697 c 0.55348,0.346994 1.21287,0.611276 1.98587,0.829647 0.31033,0.08767 0.34004,0.09521 1.18762,0.306024 2.84101,0.706629 4.04862,1.447463 4.47612,3.584967 0.61276,3.063767 -2.14163,4.763997 -6.77106,5.621307 -1.36279,0.25236 -2.81421,0.41363 -4.26433,0.50315 -0.37773,0.0233 -0.73553,0.0404 -1.0686,0.0523 -0.0791,0.53749 -0.17627,1.12873 -0.29278,1.76131 -0.36114,1.96074 -0.83281,3.92264 -1.42999,5.76147 -1.38832,4.27486 -3.22983,7.26598 -5.74002,8.40698 -5.70231,2.59196 -11.12635,0.79129 -17.12091,-5.20326 -6.01456,-6.01456 -7.80801,-11.39045 -5.20326,-17.120913 1.15135,-2.53297 4.31248,-4.536783 8.88586,-6.199866 1.93992,-0.705437 4.01118,-1.299992 6.08147,-1.788555 0.71465,-0.168648 1.37929,-0.312622 1.97777,-0.432316 0.0296,-0.443119 0.0769,-0.926492 0.14554,-1.441374 0.22457,-1.684271 0.62927,-3.370525 1.26325,-4.955477 0.69822,-1.74553 1.63569,-3.262032 2.84937,-4.475716 4.26069,-4.260691 8.47068,-3.025137 10.05186,2.94814 L 161.4337,24.594238 v -3.585786 c 0,-0.265216 0.10536,-0.51957 0.29289,-0.707107 l 7,-7 c 0.39053,-0.390524 1.02369,-0.390524 1.41422,0 l 10,10 c 0.39052,0.390525 0.39052,1.023689 0,1.414214 l -7,7 c -0.18754,0.187536 -0.44189,0.292893 -0.70711,0.292893 h -3.58579 z m -2.33097,-6.083245 c 0,2.087661 0.33126,3.58361 0.9469,4.638892 l 19.34599,-19.345999 c 0.18754,-0.187536 0.44189,-0.292893 0.70711,-0.292893 h 3.58579 l 6,-6 -8.58579,-8.585786 -6,6 v 3.585786 c 0,0.265216 -0.10536,0.51957 -0.29289,0.707107 l -15.88903,15.889023 c 0.12072,1.035083 0.18192,2.17008 0.18192,3.40387 z m -30.08963,11.4138 c -2.20409,4.84899 -0.68756,9.3948 4.79674,14.87909 5.46395,5.46395 10.05681,6.98869 14.87909,4.79674 1.84673,-0.83942 3.43766,-3.42353 4.66542,-7.204 0.56712,-1.74627 1.01893,-3.62555 1.36527,-5.50598 0.12135,-0.65888 0.22074,-1.27027 0.29962,-1.81798 0.047,-0.32599 0.0764,-0.55631 0.0899,-0.67483 0.0576,-0.50523 0.48509,-0.88684 0.99359,-0.88684 0.0856,0 0.25344,-0.002 0.49154,-0.008 0.40071,-0.0106 0.84817,-0.0297 1.33042,-0.0595 1.37523,-0.0849 2.74918,-0.23755 4.02339,-0.47352 3.60925,-0.66838 5.46392,-1.81324 5.17407,-3.2625 -0.2236,-1.118023 -0.8496,-1.502051 -2.9977,-2.036338 -0.29926,-0.07409 -0.45737,-0.113364 -0.60975,-0.152056 -0.23808,-0.06045 -0.44208,-0.114573 -0.63884,-0.17016 -3.86473,-1.092137 -5.77313,-3.415849 -5.77313,-8.837926 0,-9.099869 -3.33925,-11.246533 -7.29289,-7.292893 -1.00632,1.006316 -1.80285,2.294814 -2.40663,3.804284 -0.56652,1.416297 -0.93357,2.945669 -1.13775,4.477023 -0.0716,0.536817 -0.11751,1.034429 -0.14292,1.479105 -0.015,0.261705 -0.0198,0.443739 -0.0198,0.532481 0,0.486821 -0.35057,0.902907 -0.83034,0.985502 -0.12724,0.02191 -0.37299,0.06735 -0.72018,0.13662 -0.58255,0.116227 -1.23264,0.256874 -1.93316,0.422187 -1.99975,0.471916 -3.99854,1.045666 -5.85733,1.721604 -4.09724,1.489935 -6.89085,3.260785 -7.74862,5.147887 z m 9.38252,6.29331 c -0.39052,-0.39053 -0.39052,-1.02369 0,-1.41422 0.39053,-0.39052 1.02369,-0.39052 1.41422,0 l 4,4 c 0.39052,0.39053 0.39052,1.02369 0,1.41422 -0.39053,0.39052 -1.02369,0.39052 -1.41422,0 z m 5,-5 c -0.39052,-0.39053 -0.39052,-1.02369 0,-1.41422 0.39053,-0.390521 1.02369,-0.390521 1.41422,0 l 4,4 c 0.39052,0.39053 0.39052,1.02369 0,1.41422 -0.39053,0.39052 -1.02369,0.39052 -1.41422,0 z"
         id="path1174"
         transform="matrix(0.26458333,0,0,0.26458333,-105.46893,202.83164)" />
      <g
         transform="translate(92.978617,-8.1739885)"
         id="text1199"
         style="font-style:normal;font-weight:normal;font-size:10.58333302px;line-height:1.25;font-family:sans-serif;letter-spacing:0px;word-spacing:0px;fill:#ff8383;fill-opacity:1;stroke:none;stroke-width:0.26458332"
         aria-label="guitaros">
        <path
           inkscape:connector-curvature="0"
           id="path1201"
           style="font-style:normal;font-variant:normal;font-weight:normal;font-stretch:normal;font-family:Sacramento;-inkscape-font-specification:Sacramento;fill:#ff8383;fill-opacity:1;stroke-width:0.26458332"
           d="m -177.63985,238.7074 q 0.97151,-1.26607 1.34875,-2.10323 0.0258,-0.0568 0.0672,-0.0827 0.0465,-0.031 0.10336,-0.031 0.0879,0 0.14469,0.062 0.0568,0.0568 0.0568,0.13435 0,0.0362 -0.0155,0.0724 -0.22738,0.51677 -0.64596,1.15239 -0.41857,0.63562 -1.05936,1.4366 0,0.32556 0.005,0.65112 0.005,0.32556 0.005,0.71314 0,0.38757 -0.0207,0.76481 -0.0155,0.3824 -0.062,0.72347 -0.0465,0.34623 -0.12919,0.63562 -0.0775,0.29456 -0.20671,0.50643 -0.12402,0.21704 -0.30489,0.3359 -0.1757,0.12402 -0.41858,0.12402 -0.34623,0 -0.53226,-0.26355 -0.18604,-0.26355 -0.18604,-0.74931 0,-0.25838 0.0465,-0.56327 0.0517,-0.29973 0.14469,-0.62012 0.093,-0.32039 0.22221,-0.65112 0.13436,-0.32556 0.29456,-0.63562 0.1602,-0.31006 0.34623,-0.59428 0.1912,-0.28422 0.40308,-0.51677 0.005,-0.36173 0.005,-0.7183 0.005,-0.35657 0.0155,-0.65629 -0.15503,0.19637 -0.37207,0.31006 -0.21188,0.11369 -0.42375,0.11369 -0.18087,0 -0.33073,-0.0672 -0.14469,-0.0724 -0.24805,-0.19637 -0.10335,-0.12919 -0.16019,-0.29973 -0.0568,-0.17053 -0.0568,-0.37207 0,-0.40307 0.13436,-0.70796 0.13953,-0.31006 0.3514,-0.51677 0.21188,-0.2067 0.46509,-0.31006 0.25838,-0.10335 0.49609,-0.10335 0.1602,0 0.29456,0.0413 0.13436,0.0413 0.22738,0.093 0.0982,0.0517 0.14986,0.0982 0.0517,0.0465 0.0568,0.0517 0.0568,0.062 0.0568,0.13953 0,0.0775 -0.0568,0.13952 -0.0568,0.0568 -0.13436,0.0568 -0.0723,0 -0.13952,-0.0568 -0.0207,-0.0155 -0.0568,-0.0413 -0.031,-0.031 -0.0879,-0.062 -0.0517,-0.031 -0.12919,-0.0517 -0.0724,-0.0207 -0.1757,-0.0207 -0.15503,0 -0.34106,0.0724 -0.18604,0.0672 -0.34624,0.21704 -0.16019,0.14986 -0.26871,0.38758 -0.10852,0.23254 -0.10852,0.56327 0,0.24805 0.10852,0.40308 0.10852,0.14986 0.33589,0.14986 0.10852,0 0.22738,-0.062 0.12402,-0.062 0.23771,-0.1912 0.11369,-0.12919 0.19637,-0.32556 0.0879,-0.19637 0.12403,-0.46509 0.0103,-0.0723 0.0672,-0.11885 0.0568,-0.0517 0.13435,-0.0517 0.0879,0 0.13436,0.062 0.0517,0.062 0.0517,0.13953 0,0.005 -0.005,0.1602 -0.005,0.14986 -0.0103,0.40307 -0.005,0.25322 -0.0155,0.58911 -0.005,0.33073 -0.0103,0.7028 z m -0.39274,1.13172 q -0.24288,0.33589 -0.43925,0.72863 -0.19637,0.39791 -0.3359,0.80099 -0.13953,0.40307 -0.21704,0.78031 -0.0724,0.38241 -0.0724,0.68213 0,0.1912 0.031,0.30489 0.0362,0.11369 0.0827,0.1757 0.0517,0.062 0.10852,0.0827 0.062,0.0207 0.11369,0.0207 0.1602,0 0.27905,-0.1292 0.11886,-0.12919 0.20154,-0.34623 0.0827,-0.21187 0.13436,-0.49092 0.0517,-0.27906 0.0775,-0.57878 0.0258,-0.29456 0.0362,-0.58911 0.0103,-0.29456 0.0103,-0.5426 0,-0.22221 0,-0.44442 0,-0.22221 -0.0103,-0.45475 z" />
        <path
           inkscape:connector-curvature="0"
           id="path1203"
           style="font-style:normal;font-variant:normal;font-weight:normal;font-stretch:normal;font-family:Sacramento;-inkscape-font-specification:Sacramento;fill:#ff8383;fill-opacity:1;stroke-width:0.26458332"
           d="m -174.57027,237.6222 q -0.18087,0.29455 -0.42375,0.46509 -0.23771,0.17053 -0.48059,0.17053 -0.19637,0 -0.3514,-0.0724 -0.15503,-0.0724 -0.26872,-0.20154 -0.11368,-0.13436 -0.1757,-0.32039 -0.0568,-0.18604 -0.0568,-0.41858 0,-0.36174 0.0672,-0.64079 0.0724,-0.27905 0.15503,-0.46509 0.0827,-0.1912 0.15503,-0.28938 0.0723,-0.0982 0.0723,-0.0982 0.0258,-0.031 0.062,-0.0465 0.0413,-0.0155 0.0827,-0.0155 0.0827,0 0.13436,0.062 0.0568,0.0568 0.0568,0.13436 0,0.031 -0.0155,0.062 -0.0103,0.031 -0.0258,0.062 -0.0258,0.0465 -0.0827,0.1447 -0.0568,0.093 -0.11886,0.24804 -0.062,0.15503 -0.10852,0.36691 -0.0465,0.2067 -0.0465,0.47542 0,0.30489 0.11886,0.46509 0.12402,0.15503 0.34623,0.15503 0.093,0 0.21187,-0.0568 0.12403,-0.062 0.23772,-0.18603 0.11885,-0.12403 0.2067,-0.31523 0.0879,-0.1912 0.11369,-0.44958 l 0.0775,-0.88884 q 0.0103,-0.0775 0.0672,-0.12919 0.0569,-0.0517 0.13436,-0.0517 0.0879,0 0.13953,0.0672 0.0517,0.062 0.0517,0.1447 l -0.0672,0.85783 q -0.0103,0.10852 0.005,0.28422 0.0207,0.1757 0.0775,0.34623 0.0568,0.17053 0.17053,0.29455 0.11369,0.11886 0.29972,0.11886 0.13436,0 0.26355,-0.0672 0.12919,-0.0724 0.24805,-0.18603 0.11886,-0.11369 0.21704,-0.25322 0.10335,-0.14469 0.18604,-0.28939 0.0879,-0.14469 0.14986,-0.27388 0.062,-0.13436 0.10335,-0.22738 0.0258,-0.0568 0.0724,-0.0879 0.0465,-0.031 0.10335,-0.031 0.093,0 0.14469,0.062 0.0517,0.062 0.0517,0.13436 0,0.0413 -0.0155,0.0775 -0.0207,0.0413 -0.0827,0.1757 -0.0568,0.12919 -0.15503,0.29972 -0.093,0.16537 -0.22738,0.3514 -0.13436,0.18604 -0.29972,0.34624 -0.16537,0.15503 -0.36174,0.25838 -0.1912,0.0982 -0.41341,0.0982 -0.30489,0 -0.50643,-0.17053 -0.20154,-0.1757 -0.29972,-0.49609 z" />
        <path
           inkscape:connector-curvature="0"
           id="path1205"
           style="font-style:normal;font-variant:normal;font-weight:normal;font-stretch:normal;font-family:Sacramento;-inkscape-font-specification:Sacramento;fill:#ff8383;fill-opacity:1;stroke-width:0.26458332"
           d="m -171.74357,234.14437 q 0,0.19637 -0.13953,0.3359 -0.13436,0.13436 -0.33073,0.13436 -0.19637,0 -0.33589,-0.13436 -0.13436,-0.13953 -0.13436,-0.3359 0,-0.0982 0.0362,-0.18086 0.0362,-0.0879 0.0982,-0.14987 0.0672,-0.0672 0.14986,-0.10335 0.0879,-0.0362 0.18603,-0.0362 0.0982,0 0.18087,0.0362 0.0879,0.0362 0.14986,0.10335 0.0672,0.062 0.10336,0.14987 0.0362,0.0827 0.0362,0.18086 z m -0.83716,3.02824 q 0,-0.74414 0.093,-1.48311 0.0103,-0.0724 0.062,-0.12402 0.0568,-0.0568 0.14469,-0.0568 0.0775,0 0.12919,0.062 0.0517,0.0568 0.0517,0.13436 0,0.031 -0.0155,0.18604 -0.0103,0.15503 -0.031,0.37207 -0.0155,0.21187 -0.031,0.45475 -0.0103,0.23771 -0.0103,0.43925 0,0.27388 0.0517,0.44442 0.0568,0.16536 0.13952,0.25838 0.0879,0.093 0.18087,0.12402 0.0982,0.031 0.18604,0.031 0.14469,0 0.29972,-0.10335 0.15503,-0.10336 0.31523,-0.28939 0.16536,-0.18604 0.33073,-0.44442 0.16536,-0.26355 0.32556,-0.58394 0.0258,-0.0517 0.0723,-0.0775 0.0465,-0.031 0.10336,-0.031 0.0827,0 0.13436,0.062 0.0568,0.062 0.0568,0.13436 0,0.0517 -0.0207,0.0879 -0.062,0.11885 -0.15503,0.28938 -0.093,0.17054 -0.21187,0.3514 -0.11886,0.18087 -0.26355,0.36174 -0.13953,0.1757 -0.29973,0.32039 -0.16019,0.13953 -0.33589,0.22738 -0.1757,0.0879 -0.35657,0.0879 -0.23254,0 -0.40824,-0.0982 -0.1757,-0.0982 -0.29973,-0.26355 -0.11885,-0.16536 -0.18087,-0.38757 -0.0568,-0.22738 -0.0568,-0.48576 z m 0.54777,-3.02824 q 0,-0.0723 -0.0568,-0.12402 -0.0517,-0.0568 -0.12403,-0.0568 -0.0723,0 -0.12402,0.0568 -0.0517,0.0517 -0.0517,0.12402 0,0.0724 0.0517,0.12403 0.0517,0.0517 0.12402,0.0517 0.0724,0 0.12403,-0.0517 0.0568,-0.0517 0.0568,-0.12403 z" />
        <path
           inkscape:connector-curvature="0"
           id="path1207"
           style="font-style:normal;font-variant:normal;font-weight:normal;font-stretch:normal;font-family:Sacramento;-inkscape-font-specification:Sacramento;fill:#ff8383;fill-opacity:1;stroke-width:0.26458332"
           d="m -166.16768,233.02816 q 0,0.0827 -0.0568,0.13436 -0.0568,0.0465 -0.13952,0.0465 h -2.62 v 0.0568 q 0,0.31523 -0.0465,0.6718 -0.0465,0.35657 -0.12919,0.71313 -0.0775,0.3514 -0.18087,0.6873 -0.0982,0.3359 -0.2067,0.62012 -0.10336,0.28422 -0.20671,0.49609 -0.10335,0.20671 -0.18603,0.31006 0.0672,0.23771 0.16019,0.44442 0.093,0.20153 0.20671,0.35656 0.11885,0.14987 0.25321,0.23771 0.13436,0.0879 0.28939,0.0879 0.18087,0 0.35657,-0.14986 0.18087,-0.15503 0.33073,-0.36173 0.15503,-0.21188 0.26872,-0.42375 0.11885,-0.21704 0.17053,-0.34623 0.0517,-0.12402 0.18087,-0.12402 0.0878,0 0.13952,0.062 0.0568,0.062 0.0568,0.13436 0,0.0362 -0.0155,0.0723 -0.0155,0.0362 -0.0775,0.16537 -0.0568,0.12919 -0.15503,0.29972 -0.093,0.17053 -0.22221,0.36174 -0.12402,0.18603 -0.28422,0.34106 -0.15503,0.15503 -0.3359,0.25838 -0.18086,0.10336 -0.3824,0.10336 -0.35657,0 -0.64079,-0.23255 -0.28422,-0.23254 -0.48576,-0.65112 -0.19637,-0.41858 -0.29972,-0.99219 -0.10336,-0.57361 -0.10336,-1.25574 0,-0.17053 0.005,-0.3979 0.005,-0.23255 0.0207,-0.48576 0.0155,-0.25839 0.0465,-0.5271 0.031,-0.27389 0.0827,-0.53227 h -1.85518 q -0.0827,0 -0.13953,-0.0465 -0.0568,-0.0517 -0.0568,-0.13436 0,-0.0827 0.0568,-0.12919 0.0569,-0.0517 0.13953,-0.0517 h 1.94303 q 0.0517,-0.18604 0.11886,-0.34107 0.0724,-0.15503 0.1602,-0.26872 0.093,-0.11368 0.20153,-0.1757 0.11369,-0.0672 0.24805,-0.0672 0.12919,0 0.22221,0.0672 0.0982,0.062 0.16537,0.1757 0.0672,0.11369 0.10335,0.26872 0.0413,0.15503 0.062,0.34107 h 2.64067 q 0.0827,0 0.13952,0.0517 0.0568,0.0465 0.0568,0.12919 z m -3.89124,3.21944 q 0.15503,-0.34106 0.27905,-0.7338 0.12919,-0.39791 0.21704,-0.80099 0.093,-0.40307 0.13953,-0.79064 0.0517,-0.38758 0.0517,-0.71314 h -0.60978 q -0.0724,0.32039 -0.11886,0.79582 -0.0413,0.47025 -0.0413,1.14721 0,0.37724 0.0207,0.63562 0.0207,0.25322 0.062,0.45992 z m 0.48059,-3.86539 q -0.0465,0 -0.13436,0.10335 -0.0879,0.0982 -0.1757,0.36174 h 0.4961 q -0.0258,-0.21705 -0.0775,-0.34107 -0.0465,-0.12402 -0.10852,-0.12402 z m -0.39791,4.23746 v 0.005 z" />
        <path
           inkscape:connector-curvature="0"
           id="path1209"
           style="font-style:normal;font-variant:normal;font-weight:normal;font-stretch:normal;font-family:Sacramento;-inkscape-font-specification:Sacramento;fill:#ff8383;fill-opacity:1;stroke-width:0.26458332"
           d="m -163.87842,236.7592 q -0.0207,0.0413 -0.0879,0.1757 -0.062,0.12919 -0.16536,0.29972 -0.0982,0.17054 -0.23255,0.35657 -0.13436,0.18604 -0.29972,0.34107 -0.16536,0.15503 -0.35657,0.25838 -0.1912,0.0982 -0.40307,0.0982 -0.29973,0 -0.50643,-0.1912 -0.20154,-0.1912 -0.29456,-0.48059 -0.1757,0.29456 -0.41858,0.47026 -0.24288,0.17053 -0.48576,0.17053 -0.1912,0 -0.34623,-0.0672 -0.15503,-0.0724 -0.26355,-0.19637 -0.10852,-0.12919 -0.17053,-0.29973 -0.0568,-0.17053 -0.0568,-0.37207 0,-0.40307 0.13435,-0.70796 0.13953,-0.31006 0.3514,-0.51677 0.21188,-0.2067 0.46509,-0.31006 0.25838,-0.10335 0.4961,-0.10335 0.16019,0 0.29455,0.0465 0.13436,0.0413 0.22738,0.093 0.0982,0.0517 0.14986,0.0982 0.0517,0.0413 0.0568,0.0465 0.0568,0.0672 0.0568,0.13953 0,0.0775 -0.0568,0.13952 -0.0568,0.0568 -0.13436,0.0568 -0.0827,0 -0.13952,-0.0568 -0.0103,-0.0103 -0.0465,-0.0362 -0.0362,-0.031 -0.0982,-0.062 -0.062,-0.031 -0.14986,-0.0517 -0.0827,-0.0258 -0.1912,-0.0258 -0.1602,0 -0.34106,0.0724 -0.18087,0.0724 -0.33073,0.22738 -0.14987,0.14986 -0.25322,0.3824 -0.0982,0.22738 -0.0982,0.54261 0,0.0982 0.0207,0.20153 0.0207,0.0982 0.0723,0.18087 0.0517,0.0827 0.13953,0.13436 0.0879,0.0517 0.21704,0.0517 0.093,0 0.21188,-0.062 0.12402,-0.062 0.23254,-0.1912 0.11369,-0.12919 0.20154,-0.32556 0.093,-0.19637 0.12919,-0.46509 0.0103,-0.0723 0.0672,-0.11885 0.0568,-0.0517 0.13436,-0.0517 0.0723,0 0.12402,0.0568 0.0568,0.0569 0.062,0.1292 0.005,0.0982 0.0207,0.27905 0.0155,0.1757 0.0672,0.3514 0.0568,0.1757 0.16537,0.30489 0.10852,0.12919 0.29972,0.12919 0.12402,0 0.24288,-0.0672 0.12402,-0.0672 0.23771,-0.1757 0.11886,-0.11369 0.22221,-0.25321 0.10852,-0.1447 0.19637,-0.28939 0.0879,-0.1447 0.15503,-0.27905 0.0672,-0.13436 0.11369,-0.23255 0.0258,-0.0568 0.0723,-0.0879 0.0517,-0.031 0.10852,-0.031 0.0879,0 0.13953,0.0672 0.0568,0.062 0.0568,0.13435 0,0.0362 -0.0155,0.0724 z" />
        <path
           inkscape:connector-curvature="0"
           id="path1211"
           style="font-style:normal;font-variant:normal;font-weight:normal;font-stretch:normal;font-family:Sacramento;-inkscape-font-specification:Sacramento;fill:#ff8383;fill-opacity:1;stroke-width:0.26458332"
           d="m -163.69238,236.07707 q -0.0207,0.13953 -0.0517,0.26355 -0.031,0.11886 -0.062,0.21188 -0.0258,0.0879 -0.0465,0.14469 -0.0207,0.0568 -0.0258,0.062 -0.0517,0.11886 -0.18087,0.11886 -0.0723,0 -0.13435,-0.0517 -0.062,-0.0568 -0.062,-0.13953 0,-0.031 0.0103,-0.0465 0.0103,-0.0155 0.031,-0.062 0.0207,-0.0465 0.0517,-0.15503 0.031,-0.10852 0.0775,-0.33589 -0.0879,0 -0.18087,-0.005 -0.093,-0.005 -0.17053,-0.0362 -0.0827,-0.031 -0.13436,-0.0982 -0.0517,-0.0672 -0.0517,-0.18603 0,-0.0879 0.0517,-0.23772 0.0465,-0.14986 0.12919,-0.29455 0.0827,-0.1447 0.18603,-0.24805 0.10336,-0.10852 0.20671,-0.10852 0.11885,0 0.1912,0.0879 0.0775,0.0879 0.11886,0.21704 0.0413,0.12403 0.0568,0.26355 0.0207,0.13953 0.0207,0.24288 0.0879,0 0.17053,0 0.0879,-0.005 0.16537,-0.005 0.29455,0 0.44958,0.12919 0.15503,0.1292 0.15503,0.42375 0,0.11886 -0.0155,0.24805 -0.0155,0.12919 -0.0362,0.26872 -0.0207,0.13435 -0.0362,0.26871 -0.0155,0.13436 -0.0155,0.26355 0,0.18604 0.0517,0.31006 0.0517,0.11886 0.12919,0.1912 0.0775,0.0724 0.16536,0.10336 0.0879,0.0258 0.1602,0.0258 0.22221,0 0.41858,-0.1447 0.19637,-0.14469 0.36173,-0.34623 0.16537,-0.20671 0.29456,-0.43408 0.13436,-0.22738 0.22221,-0.39791 0.0258,-0.0465 0.0724,-0.0724 0.0465,-0.0258 0.0982,-0.0258 0.093,0 0.14469,0.062 0.0517,0.0568 0.0517,0.12919 0,0.0517 -0.0207,0.093 -0.11886,0.21188 -0.27905,0.48059 -0.15503,0.26355 -0.35657,0.4961 -0.20154,0.23254 -0.45475,0.39274 -0.24805,0.1602 -0.54777,0.1602 -0.18604,0 -0.3514,-0.0724 -0.16537,-0.0672 -0.28939,-0.19637 -0.11886,-0.13436 -0.1912,-0.32556 -0.0724,-0.19637 -0.0724,-0.43925 0,-0.25838 0.0517,-0.5116 0.0517,-0.25838 0.0517,-0.49092 0,-0.0982 -0.0465,-0.1447 -0.0413,-0.0517 -0.1912,-0.0517 -0.0724,0 -0.1602,0 -0.0827,0 -0.18086,0.005 z m -0.34624,-0.3824 q 0,-0.0362 -0.005,-0.093 0,-0.062 -0.0103,-0.11886 -0.005,-0.0568 -0.0207,-0.0982 -0.0103,-0.0413 -0.0258,-0.0413 -0.0155,0 -0.0413,0.0413 -0.0207,0.0362 -0.0465,0.093 -0.0258,0.0517 -0.0465,0.11368 -0.0207,0.062 -0.031,0.10336 z" />
        <path
           inkscape:connector-curvature="0"
           id="path1213"
           style="font-style:normal;font-variant:normal;font-weight:normal;font-stretch:normal;font-family:Sacramento;-inkscape-font-specification:Sacramento;fill:#ff8383;fill-opacity:1;stroke-width:0.26458332"
           d="m -158.64876,237.63253 q -0.12919,0 -0.22738,-0.0207 -0.0775,0.15503 -0.18603,0.28939 -0.10853,0.12919 -0.25322,0.22738 -0.13953,0.0982 -0.31523,0.15503 -0.1757,0.0568 -0.3824,0.0568 -0.24288,0 -0.44442,-0.0879 -0.20154,-0.0827 -0.3514,-0.23254 -0.14986,-0.15503 -0.23254,-0.36691 -0.0827,-0.21704 -0.0827,-0.47542 0,-0.33073 0.11885,-0.57361 0.11886,-0.24805 0.27389,-0.40824 0.15503,-0.16537 0.31006,-0.24288 0.15502,-0.0827 0.23254,-0.0827 0.0879,0 0.12919,0.0465 0.0465,0.0465 0.0465,0.12402 0,0.0879 -0.0568,0.13436 -0.0517,0.0413 -0.13436,0.0827 -0.0827,0.0413 -0.1757,0.11886 -0.093,0.0723 -0.1757,0.18603 -0.0775,0.11369 -0.12919,0.26872 -0.0517,0.15503 -0.0517,0.34623 0,0.17053 0.0517,0.32039 0.0517,0.1447 0.14986,0.25322 0.0982,0.10335 0.23254,0.16536 0.13436,0.0568 0.29972,0.0568 0.29456,0 0.48576,-0.13436 0.19637,-0.13953 0.29973,-0.3514 -0.30489,-0.1602 -0.50127,-0.45475 -0.19637,-0.29456 -0.19637,-0.66146 0,-0.29456 0.13953,-0.48059 0.14469,-0.18604 0.37724,-0.18604 0.13953,0 0.26355,0.0672 0.12402,0.0672 0.21704,0.21187 0.0982,0.1447 0.15503,0.37207 0.0568,0.22738 0.0568,0.54261 0,0.16536 -0.0413,0.34623 0.031,0.005 0.062,0.005 0.031,0 0.0672,0 0.1757,0 0.31523,-0.0413 0.13953,-0.0413 0.25321,-0.12403 0.11369,-0.0827 0.20154,-0.21187 0.093,-0.12919 0.1757,-0.29972 0.0155,-0.031 0.0672,-0.0568 0.0517,-0.031 0.10335,-0.031 0.0672,0 0.12403,0.0568 0.062,0.0517 0.062,0.13953 0,0.0413 -0.0207,0.093 -0.0207,0.0465 -0.0413,0.0879 -0.0879,0.15503 -0.20671,0.29973 -0.11369,0.13952 -0.27388,0.24804 -0.15503,0.10336 -0.3514,0.16537 -0.19637,0.062 -0.43925,0.0568 z m -0.88367,-1.30224 q 0,0.0982 0.0258,0.2067 0.0258,0.10852 0.0775,0.21704 0.0568,0.10336 0.13436,0.20154 0.0827,0.093 0.1912,0.1602 0.0155,-0.10852 0.0155,-0.21187 0,-0.13953 -0.0207,-0.28423 -0.0207,-0.14469 -0.062,-0.26355 -0.0362,-0.12402 -0.093,-0.19637 -0.0568,-0.0775 -0.13436,-0.0775 -0.031,0 -0.0827,0.0465 -0.0517,0.0465 -0.0517,0.20154 z" />
        <path
           inkscape:connector-curvature="0"
           id="path1215"
           style="font-style:normal;font-variant:normal;font-weight:normal;font-stretch:normal;font-family:Sacramento;-inkscape-font-specification:Sacramento;fill:#ff8383;fill-opacity:1;stroke-width:0.26458332"
           d="m -157.10881,236.28895 q -0.031,0.0827 -0.0775,0.18603 -0.0413,0.10335 -0.0982,0.21704 -0.0465,0.0878 -0.0982,0.13953 -0.0465,0.0465 -0.12402,0.0465 -0.0879,0 -0.13953,-0.0517 -0.0517,-0.0568 -0.0517,-0.12919 0,-0.0258 0.005,-0.0413 0.005,-0.0207 0.0258,-0.062 0.13436,-0.25839 0.19637,-0.44959 0.0672,-0.19637 0.10852,-0.40824 -0.0362,-0.11886 -0.0517,-0.20154 -0.0155,-0.0827 -0.0155,-0.17053 0,-0.17053 0.0724,-0.27389 0.0723,-0.10852 0.20154,-0.10852 0.11885,0 0.18603,0.10335 0.0724,0.10336 0.0724,0.25322 0,0.0827 -0.0155,0.16536 -0.0155,0.0827 -0.0413,0.20671 0.11886,0.29456 0.23772,0.52193 0.11885,0.22738 0.21187,0.41858 0.093,0.18604 0.14986,0.3514 0.062,0.16536 0.062,0.33073 0,0.21704 -0.0879,0.41341 -0.0879,0.19637 -0.28939,0.33073 0.0258,0.005 0.0517,0.005 0.0258,0 0.0517,0 0.29455,0 0.5426,-0.13436 0.24805,-0.13436 0.44442,-0.34623 0.20154,-0.21704 0.35656,-0.47543 0.15503,-0.26355 0.26872,-0.52193 0.0517,-0.11885 0.1447,-0.11885 0.0879,0 0.13435,0.062 0.0517,0.062 0.0517,0.13436 0,0.0413 -0.0155,0.0775 -0.0568,0.13953 -0.14986,0.32039 -0.0879,0.1757 -0.21704,0.36691 -0.12403,0.18603 -0.28939,0.3669 -0.16537,0.18087 -0.37207,0.32556 -0.20154,0.13953 -0.44442,0.22221 -0.24288,0.0879 -0.53227,0.0879 -0.34623,0 -0.64595,-0.12402 -0.29456,-0.11886 -0.48059,-0.39791 -0.031,-0.0465 -0.031,-0.0982 0,-0.0775 0.0568,-0.13436 0.062,-0.062 0.13953,-0.062 0.0827,0 0.13953,0.0568 0.005,0.0103 0.0362,0.0362 0.031,0.0207 0.0724,0.0517 0.0465,0.0258 0.10335,0.0465 0.062,0.0207 0.12402,0.0207 0.12403,0 0.20671,-0.0517 0.0879,-0.0517 0.13953,-0.12402 0.0517,-0.0775 0.0723,-0.1602 0.0258,-0.0879 0.0258,-0.14986 0,-0.12919 -0.0413,-0.25838 -0.0413,-0.1292 -0.10852,-0.25839 -0.062,-0.12919 -0.13953,-0.26355 -0.0723,-0.13952 -0.13436,-0.28938 z" />
      </g>
    </g>
    <g
       style="fill:#ff1983;fill-opacity:1"
       id="g1259"
       transform="translate(77.227318,7.3921418)">
      <path
         transform="matrix(0.26458333,0,0,0.26458333,-105.46893,202.83164)"
         id="path1239"
         d="m 149.76467,51.091697 c 0.55348,0.346994 1.21287,0.611276 1.98587,0.829647 0.31033,0.08767 0.34004,0.09521 1.18762,0.306024 2.84101,0.706629 4.04862,1.447463 4.47612,3.584967 0.61276,3.063767 -2.14163,4.763997 -6.77106,5.621307 -1.36279,0.25236 -2.81421,0.41363 -4.26433,0.50315 -0.37773,0.0233 -0.73553,0.0404 -1.0686,0.0523 -0.0791,0.53749 -0.17627,1.12873 -0.29278,1.76131 -0.36114,1.96074 -0.83281,3.92264 -1.42999,5.76147 -1.38832,4.27486 -3.22983,7.26598 -5.74002,8.40698 -5.70231,2.59196 -11.12635,0.79129 -17.12091,-5.20326 -6.01456,-6.01456 -7.80801,-11.39045 -5.20326,-17.120913 1.15135,-2.53297 4.31248,-4.536783 8.88586,-6.199866 1.93992,-0.705437 4.01118,-1.299992 6.08147,-1.788555 0.71465,-0.168648 1.37929,-0.312622 1.97777,-0.432316 0.0296,-0.443119 0.0769,-0.926492 0.14554,-1.441374 0.22457,-1.684271 0.62927,-3.370525 1.26325,-4.955477 0.69822,-1.74553 1.63569,-3.262032 2.84937,-4.475716 4.26069,-4.260691 8.47068,-3.025137 10.05186,2.94814 L 161.4337,24.594238 v -3.585786 c 0,-0.265216 0.10536,-0.51957 0.29289,-0.707107 l 7,-7 c 0.39053,-0.390524 1.02369,-0.390524 1.41422,0 l 10,10 c 0.39052,0.390525 0.39052,1.023689 0,1.414214 l -7,7 c -0.18754,0.187536 -0.44189,0.292893 -0.70711,0.292893 h -3.58579 z m -2.33097,-6.083245 c 0,2.087661 0.33126,3.58361 0.9469,4.638892 l 19.34599,-19.345999 c 0.18754,-0.187536 0.44189,-0.292893 0.70711,-0.292893 h 3.58579 l 6,-6 -8.58579,-8.585786 -6,6 v 3.585786 c 0,0.265216 -0.10536,0.51957 -0.29289,0.707107 l -15.88903,15.889023 c 0.12072,1.035083 0.18192,2.17008 0.18192,3.40387 z m -30.08963,11.4138 c -2.20409,4.84899 -0.68756,9.3948 4.79674,14.87909 5.46395,5.46395 10.05681,6.98869 14.87909,4.79674 1.84673,-0.83942 3.43766,-3.42353 4.66542,-7.204 0.56712,-1.74627 1.01893,-3.62555 1.36527,-5.50598 0.12135,-0.65888 0.22074,-1.27027 0.29962,-1.81798 0.047,-0.32599 0.0764,-0.55631 0.0899,-0.67483 0.0576,-0.50523 0.48509,-0.88684 0.99359,-0.88684 0.0856,0 0.25344,-0.002 0.49154,-0.008 0.40071,-0.0106 0.84817,-0.0297 1.33042,-0.0595 1.37523,-0.0849 2.74918,-0.23755 4.02339,-0.47352 3.60925,-0.66838 5.46392,-1.81324 5.17407,-3.2625 -0.2236,-1.118023 -0.8496,-1.502051 -2.9977,-2.036338 -0.29926,-0.07409 -0.45737,-0.113364 -0.60975,-0.152056 -0.23808,-0.06045 -0.44208,-0.114573 -0.63884,-0.17016 -3.86473,-1.092137 -5.77313,-3.415849 -5.77313,-8.837926 0,-9.099869 -3.33925,-11.246533 -7.29289,-7.292893 -1.00632,1.006316 -1.80285,2.294814 -2.40663,3.804284 -0.56652,1.416297 -0.93357,2.945669 -1.13775,4.477023 -0.0716,0.536817 -0.11751,1.034429 -0.14292,1.479105 -0.015,0.261705 -0.0198,0.443739 -0.0198,0.532481 0,0.486821 -0.35057,0.902907 -0.83034,0.985502 -0.12724,0.02191 -0.37299,0.06735 -0.72018,0.13662 -0.58255,0.116227 -1.23264,0.256874 -1.93316,0.422187 -1.99975,0.471916 -3.99854,1.045666 -5.85733,1.721604 -4.09724,1.489935 -6.89085,3.260785 -7.74862,5.147887 z m 9.38252,6.29331 c -0.39052,-0.39053 -0.39052,-1.02369 0,-1.41422 0.39053,-0.39052 1.02369,-0.39052 1.41422,0 l 4,4 c 0.39052,0.39053 0.39052,1.02369 0,1.41422 -0.39053,0.39052 -1.02369,0.39052 -1.41422,0 z m 5,-5 c -0.39052,-0.39053 -0.39052,-1.02369 0,-1.41422 0.39053,-0.390521 1.02369,-0.390521 1.41422,0 l 4,4 c 0.39052,0.39053 0.39052,1.02369 0,1.41422 -0.39053,0.39052 -1.02369,0.39052 -1.41422,0 z"
         inkscape:connector-curvature="0"
         style="fill:#ff1983;fill-opacity:1;fill-rule:evenodd" />
      <g
         aria-label="guitaros"
         style="font-style:normal;font-weight:normal;font-size:10.58333302px;line-height:1.25;font-family:sans-serif;letter-spacing:0px;word-spacing:0px;fill:#ff1983;fill-opacity:1;stroke:none;stroke-width:0.26458332"
         id="g1257"
         transform="translate(92.978617,-8.1739885)">
        <path
           d="m -177.63985,238.7074 q 0.97151,-1.26607 1.34875,-2.10323 0.0258,-0.0568 0.0672,-0.0827 0.0465,-0.031 0.10336,-0.031 0.0879,0 0.14469,0.062 0.0568,0.0568 0.0568,0.13435 0,0.0362 -0.0155,0.0724 -0.22738,0.51677 -0.64596,1.15239 -0.41857,0.63562 -1.05936,1.4366 0,0.32556 0.005,0.65112 0.005,0.32556 0.005,0.71314 0,0.38757 -0.0207,0.76481 -0.0155,0.3824 -0.062,0.72347 -0.0465,0.34623 -0.12919,0.63562 -0.0775,0.29456 -0.20671,0.50643 -0.12402,0.21704 -0.30489,0.3359 -0.1757,0.12402 -0.41858,0.12402 -0.34623,0 -0.53226,-0.26355 -0.18604,-0.26355 -0.18604,-0.74931 0,-0.25838 0.0465,-0.56327 0.0517,-0.29973 0.14469,-0.62012 0.093,-0.32039 0.22221,-0.65112 0.13436,-0.32556 0.29456,-0.63562 0.1602,-0.31006 0.34623,-0.59428 0.1912,-0.28422 0.40308,-0.51677 0.005,-0.36173 0.005,-0.7183 0.005,-0.35657 0.0155,-0.65629 -0.15503,0.19637 -0.37207,0.31006 -0.21188,0.11369 -0.42375,0.11369 -0.18087,0 -0.33073,-0.0672 -0.14469,-0.0724 -0.24805,-0.19637 -0.10335,-0.12919 -0.16019,-0.29973 -0.0568,-0.17053 -0.0568,-0.37207 0,-0.40307 0.13436,-0.70796 0.13953,-0.31006 0.3514,-0.51677 0.21188,-0.2067 0.46509,-0.31006 0.25838,-0.10335 0.49609,-0.10335 0.1602,0 0.29456,0.0413 0.13436,0.0413 0.22738,0.093 0.0982,0.0517 0.14986,0.0982 0.0517,0.0465 0.0568,0.0517 0.0568,0.062 0.0568,0.13953 0,0.0775 -0.0568,0.13952 -0.0568,0.0568 -0.13436,0.0568 -0.0723,0 -0.13952,-0.0568 -0.0207,-0.0155 -0.0568,-0.0413 -0.031,-0.031 -0.0879,-0.062 -0.0517,-0.031 -0.12919,-0.0517 -0.0724,-0.0207 -0.1757,-0.0207 -0.15503,0 -0.34106,0.0724 -0.18604,0.0672 -0.34624,0.21704 -0.16019,0.14986 -0.26871,0.38758 -0.10852,0.23254 -0.10852,0.56327 0,0.24805 0.10852,0.40308 0.10852,0.14986 0.33589,0.14986 0.10852,0 0.22738,-0.062 0.12402,-0.062 0.23771,-0.1912 0.11369,-0.12919 0.19637,-0.32556 0.0879,-0.19637 0.12403,-0.46509 0.0103,-0.0723 0.0672,-0.11885 0.0568,-0.0517 0.13435,-0.0517 0.0879,0 0.13436,0.062 0.0517,0.062 0.0517,0.13953 0,0.005 -0.005,0.1602 -0.005,0.14986 -0.0103,0.40307 -0.005,0.25322 -0.0155,0.58911 -0.005,0.33073 -0.0103,0.7028 z m -0.39274,1.13172 q -0.24288,0.33589 -0.43925,0.72863 -0.19637,0.39791 -0.3359,0.80099 -0.13953,0.40307 -0.21704,0.78031 -0.0724,0.38241 -0.0724,0.68213 0,0.1912 0.031,0.30489 0.0362,0.11369 0.0827,0.1757 0.0517,0.062 0.10852,0.0827 0.062,0.0207 0.11369,0.0207 0.1602,0 0.27905,-0.1292 0.11886,-0.12919 0.20154,-0.34623 0.0827,-0.21187 0.13436,-0.49092 0.0517,-0.27906 0.0775,-0.57878 0.0258,-0.29456 0.0362,-0.58911 0.0103,-0.29456 0.0103,-0.5426 0,-0.22221 0,-0.44442 0,-0.22221 -0.0103,-0.45475 z"
           style="font-style:normal;font-variant:normal;font-weight:normal;font-stretch:normal;font-family:Sacramento;-inkscape-font-specification:Sacramento;fill:#ff1983;fill-opacity:1;stroke-width:0.26458332"
           id="path1241"
           inkscape:connector-curvature="0" />
        <path
           d="m -174.57027,237.6222 q -0.18087,0.29455 -0.42375,0.46509 -0.23771,0.17053 -0.48059,0.17053 -0.19637,0 -0.3514,-0.0724 -0.15503,-0.0724 -0.26872,-0.20154 -0.11368,-0.13436 -0.1757,-0.32039 -0.0568,-0.18604 -0.0568,-0.41858 0,-0.36174 0.0672,-0.64079 0.0724,-0.27905 0.15503,-0.46509 0.0827,-0.1912 0.15503,-0.28938 0.0723,-0.0982 0.0723,-0.0982 0.0258,-0.031 0.062,-0.0465 0.0413,-0.0155 0.0827,-0.0155 0.0827,0 0.13436,0.062 0.0568,0.0568 0.0568,0.13436 0,0.031 -0.0155,0.062 -0.0103,0.031 -0.0258,0.062 -0.0258,0.0465 -0.0827,0.1447 -0.0568,0.093 -0.11886,0.24804 -0.062,0.15503 -0.10852,0.36691 -0.0465,0.2067 -0.0465,0.47542 0,0.30489 0.11886,0.46509 0.12402,0.15503 0.34623,0.15503 0.093,0 0.21187,-0.0568 0.12403,-0.062 0.23772,-0.18603 0.11885,-0.12403 0.2067,-0.31523 0.0879,-0.1912 0.11369,-0.44958 l 0.0775,-0.88884 q 0.0103,-0.0775 0.0672,-0.12919 0.0569,-0.0517 0.13436,-0.0517 0.0879,0 0.13953,0.0672 0.0517,0.062 0.0517,0.1447 l -0.0672,0.85783 q -0.0103,0.10852 0.005,0.28422 0.0207,0.1757 0.0775,0.34623 0.0568,0.17053 0.17053,0.29455 0.11369,0.11886 0.29972,0.11886 0.13436,0 0.26355,-0.0672 0.12919,-0.0724 0.24805,-0.18603 0.11886,-0.11369 0.21704,-0.25322 0.10335,-0.14469 0.18604,-0.28939 0.0879,-0.14469 0.14986,-0.27388 0.062,-0.13436 0.10335,-0.22738 0.0258,-0.0568 0.0724,-0.0879 0.0465,-0.031 0.10335,-0.031 0.093,0 0.14469,0.062 0.0517,0.062 0.0517,0.13436 0,0.0413 -0.0155,0.0775 -0.0207,0.0413 -0.0827,0.1757 -0.0568,0.12919 -0.15503,0.29972 -0.093,0.16537 -0.22738,0.3514 -0.13436,0.18604 -0.29972,0.34624 -0.16537,0.15503 -0.36174,0.25838 -0.1912,0.0982 -0.41341,0.0982 -0.30489,0 -0.50643,-0.17053 -0.20154,-0.1757 -0.29972,-0.49609 z"
           style="font-style:normal;font-variant:normal;font-weight:normal;font-stretch:normal;font-family:Sacramento;-inkscape-font-specification:Sacramento;fill:#ff1983;fill-opacity:1;stroke-width:0.26458332"
           id="path1243"
           inkscape:connector-curvature="0" />
        <path
           d="m -171.74357,234.14437 q 0,0.19637 -0.13953,0.3359 -0.13436,0.13436 -0.33073,0.13436 -0.19637,0 -0.33589,-0.13436 -0.13436,-0.13953 -0.13436,-0.3359 0,-0.0982 0.0362,-0.18086 0.0362,-0.0879 0.0982,-0.14987 0.0672,-0.0672 0.14986,-0.10335 0.0879,-0.0362 0.18603,-0.0362 0.0982,0 0.18087,0.0362 0.0879,0.0362 0.14986,0.10335 0.0672,0.062 0.10336,0.14987 0.0362,0.0827 0.0362,0.18086 z m -0.83716,3.02824 q 0,-0.74414 0.093,-1.48311 0.0103,-0.0724 0.062,-0.12402 0.0568,-0.0568 0.14469,-0.0568 0.0775,0 0.12919,0.062 0.0517,0.0568 0.0517,0.13436 0,0.031 -0.0155,0.18604 -0.0103,0.15503 -0.031,0.37207 -0.0155,0.21187 -0.031,0.45475 -0.0103,0.23771 -0.0103,0.43925 0,0.27388 0.0517,0.44442 0.0568,0.16536 0.13952,0.25838 0.0879,0.093 0.18087,0.12402 0.0982,0.031 0.18604,0.031 0.14469,0 0.29972,-0.10335 0.15503,-0.10336 0.31523,-0.28939 0.16536,-0.18604 0.33073,-0.44442 0.16536,-0.26355 0.32556,-0.58394 0.0258,-0.0517 0.0723,-0.0775 0.0465,-0.031 0.10336,-0.031 0.0827,0 0.13436,0.062 0.0568,0.062 0.0568,0.13436 0,0.0517 -0.0207,0.0879 -0.062,0.11885 -0.15503,0.28938 -0.093,0.17054 -0.21187,0.3514 -0.11886,0.18087 -0.26355,0.36174 -0.13953,0.1757 -0.29973,0.32039 -0.16019,0.13953 -0.33589,0.22738 -0.1757,0.0879 -0.35657,0.0879 -0.23254,0 -0.40824,-0.0982 -0.1757,-0.0982 -0.29973,-0.26355 -0.11885,-0.16536 -0.18087,-0.38757 -0.0568,-0.22738 -0.0568,-0.48576 z m 0.54777,-3.02824 q 0,-0.0723 -0.0568,-0.12402 -0.0517,-0.0568 -0.12403,-0.0568 -0.0723,0 -0.12402,0.0568 -0.0517,0.0517 -0.0517,0.12402 0,0.0724 0.0517,0.12403 0.0517,0.0517 0.12402,0.0517 0.0724,0 0.12403,-0.0517 0.0568,-0.0517 0.0568,-0.12403 z"
           style="font-style:normal;font-variant:normal;font-weight:normal;font-stretch:normal;font-family:Sacramento;-inkscape-font-specification:Sacramento;fill:#ff1983;fill-opacity:1;stroke-width:0.26458332"
           id="path1245"
           inkscape:connector-curvature="0" />
        <path
           d="m -166.16768,233.02816 q 0,0.0827 -0.0568,0.13436 -0.0568,0.0465 -0.13952,0.0465 h -2.62 v 0.0568 q 0,0.31523 -0.0465,0.6718 -0.0465,0.35657 -0.12919,0.71313 -0.0775,0.3514 -0.18087,0.6873 -0.0982,0.3359 -0.2067,0.62012 -0.10336,0.28422 -0.20671,0.49609 -0.10335,0.20671 -0.18603,0.31006 0.0672,0.23771 0.16019,0.44442 0.093,0.20153 0.20671,0.35656 0.11885,0.14987 0.25321,0.23771 0.13436,0.0879 0.28939,0.0879 0.18087,0 0.35657,-0.14986 0.18087,-0.15503 0.33073,-0.36173 0.15503,-0.21188 0.26872,-0.42375 0.11885,-0.21704 0.17053,-0.34623 0.0517,-0.12402 0.18087,-0.12402 0.0878,0 0.13952,0.062 0.0568,0.062 0.0568,0.13436 0,0.0362 -0.0155,0.0723 -0.0155,0.0362 -0.0775,0.16537 -0.0568,0.12919 -0.15503,0.29972 -0.093,0.17053 -0.22221,0.36174 -0.12402,0.18603 -0.28422,0.34106 -0.15503,0.15503 -0.3359,0.25838 -0.18086,0.10336 -0.3824,0.10336 -0.35657,0 -0.64079,-0.23255 -0.28422,-0.23254 -0.48576,-0.65112 -0.19637,-0.41858 -0.29972,-0.99219 -0.10336,-0.57361 -0.10336,-1.25574 0,-0.17053 0.005,-0.3979 0.005,-0.23255 0.0207,-0.48576 0.0155,-0.25839 0.0465,-0.5271 0.031,-0.27389 0.0827,-0.53227 h -1.85518 q -0.0827,0 -0.13953,-0.0465 -0.0568,-0.0517 -0.0568,-0.13436 0,-0.0827 0.0568,-0.12919 0.0569,-0.0517 0.13953,-0.0517 h 1.94303 q 0.0517,-0.18604 0.11886,-0.34107 0.0724,-0.15503 0.1602,-0.26872 0.093,-0.11368 0.20153,-0.1757 0.11369,-0.0672 0.24805,-0.0672 0.12919,0 0.22221,0.0672 0.0982,0.062 0.16537,0.1757 0.0672,0.11369 0.10335,0.26872 0.0413,0.15503 0.062,0.34107 h 2.64067 q 0.0827,0 0.13952,0.0517 0.0568,0.0465 0.0568,0.12919 z m -3.89124,3.21944 q 0.15503,-0.34106 0.27905,-0.7338 0.12919,-0.39791 0.21704,-0.80099 0.093,-0.40307 0.13953,-0.79064 0.0517,-0.38758 0.0517,-0.71314 h -0.60978 q -0.0724,0.32039 -0.11886,0.79582 -0.0413,0.47025 -0.0413,1.14721 0,0.37724 0.0207,0.63562 0.0207,0.25322 0.062,0.45992 z m 0.48059,-3.86539 q -0.0465,0 -0.13436,0.10335 -0.0879,0.0982 -0.1757,0.36174 h 0.4961 q -0.0258,-0.21705 -0.0775,-0.34107 -0.0465,-0.12402 -0.10852,-0.12402 z m -0.39791,4.23746 v 0.005 z"
           style="font-style:normal;font-variant:normal;font-weight:normal;font-stretch:normal;font-family:Sacramento;-inkscape-font-specification:Sacramento;fill:#ff1983;fill-opacity:1;stroke-width:0.26458332"
           id="path1247"
           inkscape:connector-curvature="0" />
        <path
           d="m -163.87842,236.7592 q -0.0207,0.0413 -0.0879,0.1757 -0.062,0.12919 -0.16536,0.29972 -0.0982,0.17054 -0.23255,0.35657 -0.13436,0.18604 -0.29972,0.34107 -0.16536,0.15503 -0.35657,0.25838 -0.1912,0.0982 -0.40307,0.0982 -0.29973,0 -0.50643,-0.1912 -0.20154,-0.1912 -0.29456,-0.48059 -0.1757,0.29456 -0.41858,0.47026 -0.24288,0.17053 -0.48576,0.17053 -0.1912,0 -0.34623,-0.0672 -0.15503,-0.0724 -0.26355,-0.19637 -0.10852,-0.12919 -0.17053,-0.29973 -0.0568,-0.17053 -0.0568,-0.37207 0,-0.40307 0.13435,-0.70796 0.13953,-0.31006 0.3514,-0.51677 0.21188,-0.2067 0.46509,-0.31006 0.25838,-0.10335 0.4961,-0.10335 0.16019,0 0.29455,0.0465 0.13436,0.0413 0.22738,0.093 0.0982,0.0517 0.14986,0.0982 0.0517,0.0413 0.0568,0.0465 0.0568,0.0672 0.0568,0.13953 0,0.0775 -0.0568,0.13952 -0.0568,0.0568 -0.13436,0.0568 -0.0827,0 -0.13952,-0.0568 -0.0103,-0.0103 -0.0465,-0.0362 -0.0362,-0.031 -0.0982,-0.062 -0.062,-0.031 -0.14986,-0.0517 -0.0827,-0.0258 -0.1912,-0.0258 -0.1602,0 -0.34106,0.0724 -0.18087,0.0724 -0.33073,0.22738 -0.14987,0.14986 -0.25322,0.3824 -0.0982,0.22738 -0.0982,0.54261 0,0.0982 0.0207,0.20153 0.0207,0.0982 0.0723,0.18087 0.0517,0.0827 0.13953,0.13436 0.0879,0.0517 0.21704,0.0517 0.093,0 0.21188,-0.062 0.12402,-0.062 0.23254,-0.1912 0.11369,-0.12919 0.20154,-0.32556 0.093,-0.19637 0.12919,-0.46509 0.0103,-0.0723 0.0672,-0.11885 0.0568,-0.0517 0.13436,-0.0517 0.0723,0 0.12402,0.0568 0.0568,0.0569 0.062,0.1292 0.005,0.0982 0.0207,0.27905 0.0155,0.1757 0.0672,0.3514 0.0568,0.1757 0.16537,0.30489 0.10852,0.12919 0.29972,0.12919 0.12402,0 0.24288,-0.0672 0.12402,-0.0672 0.23771,-0.1757 0.11886,-0.11369 0.22221,-0.25321 0.10852,-0.1447 0.19637,-0.28939 0.0879,-0.1447 0.15503,-0.27905 0.0672,-0.13436 0.11369,-0.23255 0.0258,-0.0568 0.0723,-0.0879 0.0517,-0.031 0.10852,-0.031 0.0879,0 0.13953,0.0672 0.0568,0.062 0.0568,0.13435 0,0.0362 -0.0155,0.0724 z"
           style="font-style:normal;font-variant:normal;font-weight:normal;font-stretch:normal;font-family:Sacramento;-inkscape-font-specification:Sacramento;fill:#ff1983;fill-opacity:1;stroke-width:0.26458332"
           id="path1249"
           inkscape:connector-curvature="0" />
        <path
           d="m -163.69238,236.07707 q -0.0207,0.13953 -0.0517,0.26355 -0.031,0.11886 -0.062,0.21188 -0.0258,0.0879 -0.0465,0.14469 -0.0207,0.0568 -0.0258,0.062 -0.0517,0.11886 -0.18087,0.11886 -0.0723,0 -0.13435,-0.0517 -0.062,-0.0568 -0.062,-0.13953 0,-0.031 0.0103,-0.0465 0.0103,-0.0155 0.031,-0.062 0.0207,-0.0465 0.0517,-0.15503 0.031,-0.10852 0.0775,-0.33589 -0.0879,0 -0.18087,-0.005 -0.093,-0.005 -0.17053,-0.0362 -0.0827,-0.031 -0.13436,-0.0982 -0.0517,-0.0672 -0.0517,-0.18603 0,-0.0879 0.0517,-0.23772 0.0465,-0.14986 0.12919,-0.29455 0.0827,-0.1447 0.18603,-0.24805 0.10336,-0.10852 0.20671,-0.10852 0.11885,0 0.1912,0.0879 0.0775,0.0879 0.11886,0.21704 0.0413,0.12403 0.0568,0.26355 0.0207,0.13953 0.0207,0.24288 0.0879,0 0.17053,0 0.0879,-0.005 0.16537,-0.005 0.29455,0 0.44958,0.12919 0.15503,0.1292 0.15503,0.42375 0,0.11886 -0.0155,0.24805 -0.0155,0.12919 -0.0362,0.26872 -0.0207,0.13435 -0.0362,0.26871 -0.0155,0.13436 -0.0155,0.26355 0,0.18604 0.0517,0.31006 0.0517,0.11886 0.12919,0.1912 0.0775,0.0724 0.16536,0.10336 0.0879,0.0258 0.1602,0.0258 0.22221,0 0.41858,-0.1447 0.19637,-0.14469 0.36173,-0.34623 0.16537,-0.20671 0.29456,-0.43408 0.13436,-0.22738 0.22221,-0.39791 0.0258,-0.0465 0.0724,-0.0724 0.0465,-0.0258 0.0982,-0.0258 0.093,0 0.14469,0.062 0.0517,0.0568 0.0517,0.12919 0,0.0517 -0.0207,0.093 -0.11886,0.21188 -0.27905,0.48059 -0.15503,0.26355 -0.35657,0.4961 -0.20154,0.23254 -0.45475,0.39274 -0.24805,0.1602 -0.54777,0.1602 -0.18604,0 -0.3514,-0.0724 -0.16537,-0.0672 -0.28939,-0.19637 -0.11886,-0.13436 -0.1912,-0.32556 -0.0724,-0.19637 -0.0724,-0.43925 0,-0.25838 0.0517,-0.5116 0.0517,-0.25838 0.0517,-0.49092 0,-0.0982 -0.0465,-0.1447 -0.0413,-0.0517 -0.1912,-0.0517 -0.0724,0 -0.1602,0 -0.0827,0 -0.18086,0.005 z m -0.34624,-0.3824 q 0,-0.0362 -0.005,-0.093 0,-0.062 -0.0103,-0.11886 -0.005,-0.0568 -0.0207,-0.0982 -0.0103,-0.0413 -0.0258,-0.0413 -0.0155,0 -0.0413,0.0413 -0.0207,0.0362 -0.0465,0.093 -0.0258,0.0517 -0.0465,0.11368 -0.0207,0.062 -0.031,0.10336 z"
           style="font-style:normal;font-variant:normal;font-weight:normal;font-stretch:normal;font-family:Sacramento;-inkscape-font-specification:Sacramento;fill:#ff1983;fill-opacity:1;stroke-width:0.26458332"
           id="path1251"
           inkscape:connector-curvature="0" />
        <path
           d="m -158.64876,237.63253 q -0.12919,0 -0.22738,-0.0207 -0.0775,0.15503 -0.18603,0.28939 -0.10853,0.12919 -0.25322,0.22738 -0.13953,0.0982 -0.31523,0.15503 -0.1757,0.0568 -0.3824,0.0568 -0.24288,0 -0.44442,-0.0879 -0.20154,-0.0827 -0.3514,-0.23254 -0.14986,-0.15503 -0.23254,-0.36691 -0.0827,-0.21704 -0.0827,-0.47542 0,-0.33073 0.11885,-0.57361 0.11886,-0.24805 0.27389,-0.40824 0.15503,-0.16537 0.31006,-0.24288 0.15502,-0.0827 0.23254,-0.0827 0.0879,0 0.12919,0.0465 0.0465,0.0465 0.0465,0.12402 0,0.0879 -0.0568,0.13436 -0.0517,0.0413 -0.13436,0.0827 -0.0827,0.0413 -0.1757,0.11886 -0.093,0.0723 -0.1757,0.18603 -0.0775,0.11369 -0.12919,0.26872 -0.0517,0.15503 -0.0517,0.34623 0,0.17053 0.0517,0.32039 0.0517,0.1447 0.14986,0.25322 0.0982,0.10335 0.23254,0.16536 0.13436,0.0568 0.29972,0.0568 0.29456,0 0.48576,-0.13436 0.19637,-0.13953 0.29973,-0.3514 -0.30489,-0.1602 -0.50127,-0.45475 -0.19637,-0.29456 -0.19637,-0.66146 0,-0.29456 0.13953,-0.48059 0.14469,-0.18604 0.37724,-0.18604 0.13953,0 0.26355,0.0672 0.12402,0.0672 0.21704,0.21187 0.0982,0.1447 0.15503,0.37207 0.0568,0.22738 0.0568,0.54261 0,0.16536 -0.0413,0.34623 0.031,0.005 0.062,0.005 0.031,0 0.0672,0 0.1757,0 0.31523,-0.0413 0.13953,-0.0413 0.25321,-0.12403 0.11369,-0.0827 0.20154,-0.21187 0.093,-0.12919 0.1757,-0.29972 0.0155,-0.031 0.0672,-0.0568 0.0517,-0.031 0.10335,-0.031 0.0672,0 0.12403,0.0568 0.062,0.0517 0.062,0.13953 0,0.0413 -0.0207,0.093 -0.0207,0.0465 -0.0413,0.0879 -0.0879,0.15503 -0.20671,0.29973 -0.11369,0.13952 -0.27388,0.24804 -0.15503,0.10336 -0.3514,0.16537 -0.19637,0.062 -0.43925,0.0568 z m -0.88367,-1.30224 q 0,0.0982 0.0258,0.2067 0.0258,0.10852 0.0775,0.21704 0.0568,0.10336 0.13436,0.20154 0.0827,0.093 0.1912,0.1602 0.0155,-0.10852 0.0155,-0.21187 0,-0.13953 -0.0207,-0.28423 -0.0207,-0.14469 -0.062,-0.26355 -0.0362,-0.12402 -0.093,-0.19637 -0.0568,-0.0775 -0.13436,-0.0775 -0.031,0 -0.0827,0.0465 -0.0517,0.0465 -0.0517,0.20154 z"
           style="font-style:normal;font-variant:normal;font-weight:normal;font-stretch:normal;font-family:Sacramento;-inkscape-font-specification:Sacramento;fill:#ff1983;fill-opacity:1;stroke-width:0.26458332"
           id="path1253"
           inkscape:connector-curvature="0" />
        <path
           d="m -157.10881,236.28895 q -0.031,0.0827 -0.0775,0.18603 -0.0413,0.10335 -0.0982,0.21704 -0.0465,0.0878 -0.0982,0.13953 -0.0465,0.0465 -0.12402,0.0465 -0.0879,0 -0.13953,-0.0517 -0.0517,-0.0568 -0.0517,-0.12919 0,-0.0258 0.005,-0.0413 0.005,-0.0207 0.0258,-0.062 0.13436,-0.25839 0.19637,-0.44959 0.0672,-0.19637 0.10852,-0.40824 -0.0362,-0.11886 -0.0517,-0.20154 -0.0155,-0.0827 -0.0155,-0.17053 0,-0.17053 0.0724,-0.27389 0.0723,-0.10852 0.20154,-0.10852 0.11885,0 0.18603,0.10335 0.0724,0.10336 0.0724,0.25322 0,0.0827 -0.0155,0.16536 -0.0155,0.0827 -0.0413,0.20671 0.11886,0.29456 0.23772,0.52193 0.11885,0.22738 0.21187,0.41858 0.093,0.18604 0.14986,0.3514 0.062,0.16536 0.062,0.33073 0,0.21704 -0.0879,0.41341 -0.0879,0.19637 -0.28939,0.33073 0.0258,0.005 0.0517,0.005 0.0258,0 0.0517,0 0.29455,0 0.5426,-0.13436 0.24805,-0.13436 0.44442,-0.34623 0.20154,-0.21704 0.35656,-0.47543 0.15503,-0.26355 0.26872,-0.52193 0.0517,-0.11885 0.1447,-0.11885 0.0879,0 0.13435,0.062 0.0517,0.062 0.0517,0.13436 0,0.0413 -0.0155,0.0775 -0.0568,0.13953 -0.14986,0.32039 -0.0879,0.1757 -0.21704,0.36691 -0.12403,0.18603 -0.28939,0.3669 -0.16537,0.18087 -0.37207,0.32556 -0.20154,0.13953 -0.44442,0.22221 -0.24288,0.0879 -0.53227,0.0879 -0.34623,0 -0.64595,-0.12402 -0.29456,-0.11886 -0.48059,-0.39791 -0.031,-0.0465 -0.031,-0.0982 0,-0.0775 0.0568,-0.13436 0.062,-0.062 0.13953,-0.062 0.0827,0 0.13953,0.0568 0.005,0.0103 0.0362,0.0362 0.031,0.0207 0.0724,0.0517 0.0465,0.0258 0.10335,0.0465 0.062,0.0207 0.12402,0.0207 0.12403,0 0.20671,-0.0517 0.0879,-0.0517 0.13953,-0.12402 0.0517,-0.0775 0.0723,-0.1602 0.0258,-0.0879 0.0258,-0.14986 0,-0.12919 -0.0413,-0.25838 -0.0413,-0.1292 -0.10852,-0.25839 -0.062,-0.12919 -0.13953,-0.26355 -0.0723,-0.13952 -0.13436,-0.28938 z"
           style="font-style:normal;font-variant:normal;font-weight:normal;font-stretch:normal;font-family:Sacramento;-inkscape-font-specification:Sacramento;fill:#ff1983;fill-opacity:1;stroke-width:0.26458332"
           id="path1255"
           inkscape:connector-curvature="0" />
      </g>
    </g>
    <g
       style="fill:#ff8383;fill-opacity:1"
       id="g1283"
       transform="translate(36.889204,44.919942)">
      <path
         transform="matrix(0.26458333,0,0,0.26458333,-105.46893,202.83164)"
         id="path1263"
         d="m 149.76467,51.091697 c 0.55348,0.346994 1.21287,0.611276 1.98587,0.829647 0.31033,0.08767 0.34004,0.09521 1.18762,0.306024 2.84101,0.706629 4.04862,1.447463 4.47612,3.584967 0.61276,3.063767 -2.14163,4.763997 -6.77106,5.621307 -1.36279,0.25236 -2.81421,0.41363 -4.26433,0.50315 -0.37773,0.0233 -0.73553,0.0404 -1.0686,0.0523 -0.0791,0.53749 -0.17627,1.12873 -0.29278,1.76131 -0.36114,1.96074 -0.83281,3.92264 -1.42999,5.76147 -1.38832,4.27486 -3.22983,7.26598 -5.74002,8.40698 -5.70231,2.59196 -11.12635,0.79129 -17.12091,-5.20326 -6.01456,-6.01456 -7.80801,-11.39045 -5.20326,-17.120913 1.15135,-2.53297 4.31248,-4.536783 8.88586,-6.199866 1.93992,-0.705437 4.01118,-1.299992 6.08147,-1.788555 0.71465,-0.168648 1.37929,-0.312622 1.97777,-0.432316 0.0296,-0.443119 0.0769,-0.926492 0.14554,-1.441374 0.22457,-1.684271 0.62927,-3.370525 1.26325,-4.955477 0.69822,-1.74553 1.63569,-3.262032 2.84937,-4.475716 4.26069,-4.260691 8.47068,-3.025137 10.05186,2.94814 L 161.4337,24.594238 v -3.585786 c 0,-0.265216 0.10536,-0.51957 0.29289,-0.707107 l 7,-7 c 0.39053,-0.390524 1.02369,-0.390524 1.41422,0 l 10,10 c 0.39052,0.390525 0.39052,1.023689 0,1.414214 l -7,7 c -0.18754,0.187536 -0.44189,0.292893 -0.70711,0.292893 h -3.58579 z m -2.33097,-6.083245 c 0,2.087661 0.33126,3.58361 0.9469,4.638892 l 19.34599,-19.345999 c 0.18754,-0.187536 0.44189,-0.292893 0.70711,-0.292893 h 3.58579 l 6,-6 -8.58579,-8.585786 -6,6 v 3.585786 c 0,0.265216 -0.10536,0.51957 -0.29289,0.707107 l -15.88903,15.889023 c 0.12072,1.035083 0.18192,2.17008 0.18192,3.40387 z m -30.08963,11.4138 c -2.20409,4.84899 -0.68756,9.3948 4.79674,14.87909 5.46395,5.46395 10.05681,6.98869 14.87909,4.79674 1.84673,-0.83942 3.43766,-3.42353 4.66542,-7.204 0.56712,-1.74627 1.01893,-3.62555 1.36527,-5.50598 0.12135,-0.65888 0.22074,-1.27027 0.29962,-1.81798 0.047,-0.32599 0.0764,-0.55631 0.0899,-0.67483 0.0576,-0.50523 0.48509,-0.88684 0.99359,-0.88684 0.0856,0 0.25344,-0.002 0.49154,-0.008 0.40071,-0.0106 0.84817,-0.0297 1.33042,-0.0595 1.37523,-0.0849 2.74918,-0.23755 4.02339,-0.47352 3.60925,-0.66838 5.46392,-1.81324 5.17407,-3.2625 -0.2236,-1.118023 -0.8496,-1.502051 -2.9977,-2.036338 -0.29926,-0.07409 -0.45737,-0.113364 -0.60975,-0.152056 -0.23808,-0.06045 -0.44208,-0.114573 -0.63884,-0.17016 -3.86473,-1.092137 -5.77313,-3.415849 -5.77313,-8.837926 0,-9.099869 -3.33925,-11.246533 -7.29289,-7.292893 -1.00632,1.006316 -1.80285,2.294814 -2.40663,3.804284 -0.56652,1.416297 -0.93357,2.945669 -1.13775,4.477023 -0.0716,0.536817 -0.11751,1.034429 -0.14292,1.479105 -0.015,0.261705 -0.0198,0.443739 -0.0198,0.532481 0,0.486821 -0.35057,0.902907 -0.83034,0.985502 -0.12724,0.02191 -0.37299,0.06735 -0.72018,0.13662 -0.58255,0.116227 -1.23264,0.256874 -1.93316,0.422187 -1.99975,0.471916 -3.99854,1.045666 -5.85733,1.721604 -4.09724,1.489935 -6.89085,3.260785 -7.74862,5.147887 z m 9.38252,6.29331 c -0.39052,-0.39053 -0.39052,-1.02369 0,-1.41422 0.39053,-0.39052 1.02369,-0.39052 1.41422,0 l 4,4 c 0.39052,0.39053 0.39052,1.02369 0,1.41422 -0.39053,0.39052 -1.02369,0.39052 -1.41422,0 z m 5,-5 c -0.39052,-0.39053 -0.39052,-1.02369 0,-1.41422 0.39053,-0.390521 1.02369,-0.390521 1.41422,0 l 4,4 c 0.39052,0.39053 0.39052,1.02369 0,1.41422 -0.39053,0.39052 -1.02369,0.39052 -1.41422,0 z"
         inkscape:connector-curvature="0"
         style="fill:#ff8383;fill-opacity:1;fill-rule:evenodd" />
      <g
         aria-label="guitaros"
         style="font-style:normal;font-weight:normal;font-size:10.58333302px;line-height:1.25;font-family:sans-serif;letter-spacing:0px;word-spacing:0px;fill:#ff8383;fill-opacity:1;stroke:none;stroke-width:0.26458332"
         id="g1281"
         transform="translate(92.978617,-8.1739885)">
        <path
           d="m -177.63985,238.7074 q 0.97151,-1.26607 1.34875,-2.10323 0.0258,-0.0568 0.0672,-0.0827 0.0465,-0.031 0.10336,-0.031 0.0879,0 0.14469,0.062 0.0568,0.0568 0.0568,0.13435 0,0.0362 -0.0155,0.0724 -0.22738,0.51677 -0.64596,1.15239 -0.41857,0.63562 -1.05936,1.4366 0,0.32556 0.005,0.65112 0.005,0.32556 0.005,0.71314 0,0.38757 -0.0207,0.76481 -0.0155,0.3824 -0.062,0.72347 -0.0465,0.34623 -0.12919,0.63562 -0.0775,0.29456 -0.20671,0.50643 -0.12402,0.21704 -0.30489,0.3359 -0.1757,0.12402 -0.41858,0.12402 -0.34623,0 -0.53226,-0.26355 -0.18604,-0.26355 -0.18604,-0.74931 0,-0.25838 0.0465,-0.56327 0.0517,-0.29973 0.14469,-0.62012 0.093,-0.32039 0.22221,-0.65112 0.13436,-0.32556 0.29456,-0.63562 0.1602,-0.31006 0.34623,-0.59428 0.1912,-0.28422 0.40308,-0.51677 0.005,-0.36173 0.005,-0.7183 0.005,-0.35657 0.0155,-0.65629 -0.15503,0.19637 -0.37207,0.31006 -0.21188,0.11369 -0.42375,0.11369 -0.18087,0 -0.33073,-0.0672 -0.14469,-0.0724 -0.24805,-0.19637 -0.10335,-0.12919 -0.16019,-0.29973 -0.0568,-0.17053 -0.0568,-0.37207 0,-0.40307 0.13436,-0.70796 0.13953,-0.31006 0.3514,-0.51677 0.21188,-0.2067 0.46509,-0.31006 0.25838,-0.10335 0.49609,-0.10335 0.1602,0 0.29456,0.0413 0.13436,0.0413 0.22738,0.093 0.0982,0.0517 0.14986,0.0982 0.0517,0.0465 0.0568,0.0517 0.0568,0.062 0.0568,0.13953 0,0.0775 -0.0568,0.13952 -0.0568,0.0568 -0.13436,0.0568 -0.0723,0 -0.13952,-0.0568 -0.0207,-0.0155 -0.0568,-0.0413 -0.031,-0.031 -0.0879,-0.062 -0.0517,-0.031 -0.12919,-0.0517 -0.0724,-0.0207 -0.1757,-0.0207 -0.15503,0 -0.34106,0.0724 -0.18604,0.0672 -0.34624,0.21704 -0.16019,0.14986 -0.26871,0.38758 -0.10852,0.23254 -0.10852,0.56327 0,0.24805 0.10852,0.40308 0.10852,0.14986 0.33589,0.14986 0.10852,0 0.22738,-0.062 0.12402,-0.062 0.23771,-0.1912 0.11369,-0.12919 0.19637,-0.32556 0.0879,-0.19637 0.12403,-0.46509 0.0103,-0.0723 0.0672,-0.11885 0.0568,-0.0517 0.13435,-0.0517 0.0879,0 0.13436,0.062 0.0517,0.062 0.0517,0.13953 0,0.005 -0.005,0.1602 -0.005,0.14986 -0.0103,0.40307 -0.005,0.25322 -0.0155,0.58911 -0.005,0.33073 -0.0103,0.7028 z m -0.39274,1.13172 q -0.24288,0.33589 -0.43925,0.72863 -0.19637,0.39791 -0.3359,0.80099 -0.13953,0.40307 -0.21704,0.78031 -0.0724,0.38241 -0.0724,0.68213 0,0.1912 0.031,0.30489 0.0362,0.11369 0.0827,0.1757 0.0517,0.062 0.10852,0.0827 0.062,0.0207 0.11369,0.0207 0.1602,0 0.27905,-0.1292 0.11886,-0.12919 0.20154,-0.34623 0.0827,-0.21187 0.13436,-0.49092 0.0517,-0.27906 0.0775,-0.57878 0.0258,-0.29456 0.0362,-0.58911 0.0103,-0.29456 0.0103,-0.5426 0,-0.22221 0,-0.44442 0,-0.22221 -0.0103,-0.45475 z"
           style="font-style:normal;font-variant:normal;font-weight:normal;font-stretch:normal;font-family:Sacramento;-inkscape-font-specification:Sacramento;fill:#ff8383;fill-opacity:1;stroke-width:0.26458332"
           id="path1265"
           inkscape:connector-curvature="0" />
        <path
           d="m -174.57027,237.6222 q -0.18087,0.29455 -0.42375,0.46509 -0.23771,0.17053 -0.48059,0.17053 -0.19637,0 -0.3514,-0.0724 -0.15503,-0.0724 -0.26872,-0.20154 -0.11368,-0.13436 -0.1757,-0.32039 -0.0568,-0.18604 -0.0568,-0.41858 0,-0.36174 0.0672,-0.64079 0.0724,-0.27905 0.15503,-0.46509 0.0827,-0.1912 0.15503,-0.28938 0.0723,-0.0982 0.0723,-0.0982 0.0258,-0.031 0.062,-0.0465 0.0413,-0.0155 0.0827,-0.0155 0.0827,0 0.13436,0.062 0.0568,0.0568 0.0568,0.13436 0,0.031 -0.0155,0.062 -0.0103,0.031 -0.0258,0.062 -0.0258,0.0465 -0.0827,0.1447 -0.0568,0.093 -0.11886,0.24804 -0.062,0.15503 -0.10852,0.36691 -0.0465,0.2067 -0.0465,0.47542 0,0.30489 0.11886,0.46509 0.12402,0.15503 0.34623,0.15503 0.093,0 0.21187,-0.0568 0.12403,-0.062 0.23772,-0.18603 0.11885,-0.12403 0.2067,-0.31523 0.0879,-0.1912 0.11369,-0.44958 l 0.0775,-0.88884 q 0.0103,-0.0775 0.0672,-0.12919 0.0569,-0.0517 0.13436,-0.0517 0.0879,0 0.13953,0.0672 0.0517,0.062 0.0517,0.1447 l -0.0672,0.85783 q -0.0103,0.10852 0.005,0.28422 0.0207,0.1757 0.0775,0.34623 0.0568,0.17053 0.17053,0.29455 0.11369,0.11886 0.29972,0.11886 0.13436,0 0.26355,-0.0672 0.12919,-0.0724 0.24805,-0.18603 0.11886,-0.11369 0.21704,-0.25322 0.10335,-0.14469 0.18604,-0.28939 0.0879,-0.14469 0.14986,-0.27388 0.062,-0.13436 0.10335,-0.22738 0.0258,-0.0568 0.0724,-0.0879 0.0465,-0.031 0.10335,-0.031 0.093,0 0.14469,0.062 0.0517,0.062 0.0517,0.13436 0,0.0413 -0.0155,0.0775 -0.0207,0.0413 -0.0827,0.1757 -0.0568,0.12919 -0.15503,0.29972 -0.093,0.16537 -0.22738,0.3514 -0.13436,0.18604 -0.29972,0.34624 -0.16537,0.15503 -0.36174,0.25838 -0.1912,0.0982 -0.41341,0.0982 -0.30489,0 -0.50643,-0.17053 -0.20154,-0.1757 -0.29972,-0.49609 z"
           style="font-style:normal;font-variant:normal;font-weight:normal;font-stretch:normal;font-family:Sacramento;-inkscape-font-specification:Sacramento;fill:#ff8383;fill-opacity:1;stroke-width:0.26458332"
           id="path1267"
           inkscape:connector-curvature="0" />
        <path
           d="m -171.74357,234.14437 q 0,0.19637 -0.13953,0.3359 -0.13436,0.13436 -0.33073,0.13436 -0.19637,0 -0.33589,-0.13436 -0.13436,-0.13953 -0.13436,-0.3359 0,-0.0982 0.0362,-0.18086 0.0362,-0.0879 0.0982,-0.14987 0.0672,-0.0672 0.14986,-0.10335 0.0879,-0.0362 0.18603,-0.0362 0.0982,0 0.18087,0.0362 0.0879,0.0362 0.14986,0.10335 0.0672,0.062 0.10336,0.14987 0.0362,0.0827 0.0362,0.18086 z m -0.83716,3.02824 q 0,-0.74414 0.093,-1.48311 0.0103,-0.0724 0.062,-0.12402 0.0568,-0.0568 0.14469,-0.0568 0.0775,0 0.12919,0.062 0.0517,0.0568 0.0517,0.13436 0,0.031 -0.0155,0.18604 -0.0103,0.15503 -0.031,0.37207 -0.0155,0.21187 -0.031,0.45475 -0.0103,0.23771 -0.0103,0.43925 0,0.27388 0.0517,0.44442 0.0568,0.16536 0.13952,0.25838 0.0879,0.093 0.18087,0.12402 0.0982,0.031 0.18604,0.031 0.14469,0 0.29972,-0.10335 0.15503,-0.10336 0.31523,-0.28939 0.16536,-0.18604 0.33073,-0.44442 0.16536,-0.26355 0.32556,-0.58394 0.0258,-0.0517 0.0723,-0.0775 0.0465,-0.031 0.10336,-0.031 0.0827,0 0.13436,0.062 0.0568,0.062 0.0568,0.13436 0,0.0517 -0.0207,0.0879 -0.062,0.11885 -0.15503,0.28938 -0.093,0.17054 -0.21187,0.3514 -0.11886,0.18087 -0.26355,0.36174 -0.13953,0.1757 -0.29973,0.32039 -0.16019,0.13953 -0.33589,0.22738 -0.1757,0.0879 -0.35657,0.0879 -0.23254,0 -0.40824,-0.0982 -0.1757,-0.0982 -0.29973,-0.26355 -0.11885,-0.16536 -0.18087,-0.38757 -0.0568,-0.22738 -0.0568,-0.48576 z m 0.54777,-3.02824 q 0,-0.0723 -0.0568,-0.12402 -0.0517,-0.0568 -0.12403,-0.0568 -0.0723,0 -0.12402,0.0568 -0.0517,0.0517 -0.0517,0.12402 0,0.0724 0.0517,0.12403 0.0517,0.0517 0.12402,0.0517 0.0724,0 0.12403,-0.0517 0.0568,-0.0517 0.0568,-0.12403 z"
           style="font-style:normal;font-variant:normal;font-weight:normal;font-stretch:normal;font-family:Sacramento;-inkscape-font-specification:Sacramento;fill:#ff8383;fill-opacity:1;stroke-width:0.26458332"
           id="path1269"
           inkscape:connector-curvature="0" />
        <path
           d="m -166.16768,233.02816 q 0,0.0827 -0.0568,0.13436 -0.0568,0.0465 -0.13952,0.0465 h -2.62 v 0.0568 q 0,0.31523 -0.0465,0.6718 -0.0465,0.35657 -0.12919,0.71313 -0.0775,0.3514 -0.18087,0.6873 -0.0982,0.3359 -0.2067,0.62012 -0.10336,0.28422 -0.20671,0.49609 -0.10335,0.20671 -0.18603,0.31006 0.0672,0.23771 0.16019,0.44442 0.093,0.20153 0.20671,0.35656 0.11885,0.14987 0.25321,0.23771 0.13436,0.0879 0.28939,0.0879 0.18087,0 0.35657,-0.14986 0.18087,-0.15503 0.33073,-0.36173 0.15503,-0.21188 0.26872,-0.42375 0.11885,-0.21704 0.17053,-0.34623 0.0517,-0.12402 0.18087,-0.12402 0.0878,0 0.13952,0.062 0.0568,0.062 0.0568,0.13436 0,0.0362 -0.0155,0.0723 -0.0155,0.0362 -0.0775,0.16537 -0.0568,0.12919 -0.15503,0.29972 -0.093,0.17053 -0.22221,0.36174 -0.12402,0.18603 -0.28422,0.34106 -0.15503,0.15503 -0.3359,0.25838 -0.18086,0.10336 -0.3824,0.10336 -0.35657,0 -0.64079,-0.23255 -0.28422,-0.23254 -0.48576,-0.65112 -0.19637,-0.41858 -0.29972,-0.99219 -0.10336,-0.57361 -0.10336,-1.25574 0,-0.17053 0.005,-0.3979 0.005,-0.23255 0.0207,-0.48576 0.0155,-0.25839 0.0465,-0.5271 0.031,-0.27389 0.0827,-0.53227 h -1.85518 q -0.0827,0 -0.13953,-0.0465 -0.0568,-0.0517 -0.0568,-0.13436 0,-0.0827 0.0568,-0.12919 0.0569,-0.0517 0.13953,-0.0517 h 1.94303 q 0.0517,-0.18604 0.11886,-0.34107 0.0724,-0.15503 0.1602,-0.26872 0.093,-0.11368 0.20153,-0.1757 0.11369,-0.0672 0.24805,-0.0672 0.12919,0 0.22221,0.0672 0.0982,0.062 0.16537,0.1757 0.0672,0.11369 0.10335,0.26872 0.0413,0.15503 0.062,0.34107 h 2.64067 q 0.0827,0 0.13952,0.0517 0.0568,0.0465 0.0568,0.12919 z m -3.89124,3.21944 q 0.15503,-0.34106 0.27905,-0.7338 0.12919,-0.39791 0.21704,-0.80099 0.093,-0.40307 0.13953,-0.79064 0.0517,-0.38758 0.0517,-0.71314 h -0.60978 q -0.0724,0.32039 -0.11886,0.79582 -0.0413,0.47025 -0.0413,1.14721 0,0.37724 0.0207,0.63562 0.0207,0.25322 0.062,0.45992 z m 0.48059,-3.86539 q -0.0465,0 -0.13436,0.10335 -0.0879,0.0982 -0.1757,0.36174 h 0.4961 q -0.0258,-0.21705 -0.0775,-0.34107 -0.0465,-0.12402 -0.10852,-0.12402 z m -0.39791,4.23746 v 0.005 z"
           style="font-style:normal;font-variant:normal;font-weight:normal;font-stretch:normal;font-family:Sacramento;-inkscape-font-specification:Sacramento;fill:#ff8383;fill-opacity:1;stroke-width:0.26458332"
           id="path1271"
           inkscape:connector-curvature="0" />
        <path
           d="m -163.87842,236.7592 q -0.0207,0.0413 -0.0879,0.1757 -0.062,0.12919 -0.16536,0.29972 -0.0982,0.17054 -0.23255,0.35657 -0.13436,0.18604 -0.29972,0.34107 -0.16536,0.15503 -0.35657,0.25838 -0.1912,0.0982 -0.40307,0.0982 -0.29973,0 -0.50643,-0.1912 -0.20154,-0.1912 -0.29456,-0.48059 -0.1757,0.29456 -0.41858,0.47026 -0.24288,0.17053 -0.48576,0.17053 -0.1912,0 -0.34623,-0.0672 -0.15503,-0.0724 -0.26355,-0.19637 -0.10852,-0.12919 -0.17053,-0.29973 -0.0568,-0.17053 -0.0568,-0.37207 0,-0.40307 0.13435,-0.70796 0.13953,-0.31006 0.3514,-0.51677 0.21188,-0.2067 0.46509,-0.31006 0.25838,-0.10335 0.4961,-0.10335 0.16019,0 0.29455,0.0465 0.13436,0.0413 0.22738,0.093 0.0982,0.0517 0.14986,0.0982 0.0517,0.0413 0.0568,0.0465 0.0568,0.0672 0.0568,0.13953 0,0.0775 -0.0568,0.13952 -0.0568,0.0568 -0.13436,0.0568 -0.0827,0 -0.13952,-0.0568 -0.0103,-0.0103 -0.0465,-0.0362 -0.0362,-0.031 -0.0982,-0.062 -0.062,-0.031 -0.14986,-0.0517 -0.0827,-0.0258 -0.1912,-0.0258 -0.1602,0 -0.34106,0.0724 -0.18087,0.0724 -0.33073,0.22738 -0.14987,0.14986 -0.25322,0.3824 -0.0982,0.22738 -0.0982,0.54261 0,0.0982 0.0207,0.20153 0.0207,0.0982 0.0723,0.18087 0.0517,0.0827 0.13953,0.13436 0.0879,0.0517 0.21704,0.0517 0.093,0 0.21188,-0.062 0.12402,-0.062 0.23254,-0.1912 0.11369,-0.12919 0.20154,-0.32556 0.093,-0.19637 0.12919,-0.46509 0.0103,-0.0723 0.0672,-0.11885 0.0568,-0.0517 0.13436,-0.0517 0.0723,0 0.12402,0.0568 0.0568,0.0569 0.062,0.1292 0.005,0.0982 0.0207,0.27905 0.0155,0.1757 0.0672,0.3514 0.0568,0.1757 0.16537,0.30489 0.10852,0.12919 0.29972,0.12919 0.12402,0 0.24288,-0.0672 0.12402,-0.0672 0.23771,-0.1757 0.11886,-0.11369 0.22221,-0.25321 0.10852,-0.1447 0.19637,-0.28939 0.0879,-0.1447 0.15503,-0.27905 0.0672,-0.13436 0.11369,-0.23255 0.0258,-0.0568 0.0723,-0.0879 0.0517,-0.031 0.10852,-0.031 0.0879,0 0.13953,0.0672 0.0568,0.062 0.0568,0.13435 0,0.0362 -0.0155,0.0724 z"
           style="font-style:normal;font-variant:normal;font-weight:normal;font-stretch:normal;font-family:Sacramento;-inkscape-font-specification:Sacramento;fill:#ff8383;fill-opacity:1;stroke-width:0.26458332"
           id="path1273"
           inkscape:connector-curvature="0" />
        <path
           d="m -163.69238,236.07707 q -0.0207,0.13953 -0.0517,0.26355 -0.031,0.11886 -0.062,0.21188 -0.0258,0.0879 -0.0465,0.14469 -0.0207,0.0568 -0.0258,0.062 -0.0517,0.11886 -0.18087,0.11886 -0.0723,0 -0.13435,-0.0517 -0.062,-0.0568 -0.062,-0.13953 0,-0.031 0.0103,-0.0465 0.0103,-0.0155 0.031,-0.062 0.0207,-0.0465 0.0517,-0.15503 0.031,-0.10852 0.0775,-0.33589 -0.0879,0 -0.18087,-0.005 -0.093,-0.005 -0.17053,-0.0362 -0.0827,-0.031 -0.13436,-0.0982 -0.0517,-0.0672 -0.0517,-0.18603 0,-0.0879 0.0517,-0.23772 0.0465,-0.14986 0.12919,-0.29455 0.0827,-0.1447 0.18603,-0.24805 0.10336,-0.10852 0.20671,-0.10852 0.11885,0 0.1912,0.0879 0.0775,0.0879 0.11886,0.21704 0.0413,0.12403 0.0568,0.26355 0.0207,0.13953 0.0207,0.24288 0.0879,0 0.17053,0 0.0879,-0.005 0.16537,-0.005 0.29455,0 0.44958,0.12919 0.15503,0.1292 0.15503,0.42375 0,0.11886 -0.0155,0.24805 -0.0155,0.12919 -0.0362,0.26872 -0.0207,0.13435 -0.0362,0.26871 -0.0155,0.13436 -0.0155,0.26355 0,0.18604 0.0517,0.31006 0.0517,0.11886 0.12919,0.1912 0.0775,0.0724 0.16536,0.10336 0.0879,0.0258 0.1602,0.0258 0.22221,0 0.41858,-0.1447 0.19637,-0.14469 0.36173,-0.34623 0.16537,-0.20671 0.29456,-0.43408 0.13436,-0.22738 0.22221,-0.39791 0.0258,-0.0465 0.0724,-0.0724 0.0465,-0.0258 0.0982,-0.0258 0.093,0 0.14469,0.062 0.0517,0.0568 0.0517,0.12919 0,0.0517 -0.0207,0.093 -0.11886,0.21188 -0.27905,0.48059 -0.15503,0.26355 -0.35657,0.4961 -0.20154,0.23254 -0.45475,0.39274 -0.24805,0.1602 -0.54777,0.1602 -0.18604,0 -0.3514,-0.0724 -0.16537,-0.0672 -0.28939,-0.19637 -0.11886,-0.13436 -0.1912,-0.32556 -0.0724,-0.19637 -0.0724,-0.43925 0,-0.25838 0.0517,-0.5116 0.0517,-0.25838 0.0517,-0.49092 0,-0.0982 -0.0465,-0.1447 -0.0413,-0.0517 -0.1912,-0.0517 -0.0724,0 -0.1602,0 -0.0827,0 -0.18086,0.005 z m -0.34624,-0.3824 q 0,-0.0362 -0.005,-0.093 0,-0.062 -0.0103,-0.11886 -0.005,-0.0568 -0.0207,-0.0982 -0.0103,-0.0413 -0.0258,-0.0413 -0.0155,0 -0.0413,0.0413 -0.0207,0.0362 -0.0465,0.093 -0.0258,0.0517 -0.0465,0.11368 -0.0207,0.062 -0.031,0.10336 z"
           style="font-style:normal;font-variant:normal;font-weight:normal;font-stretch:normal;font-family:Sacramento;-inkscape-font-specification:Sacramento;fill:#ff8383;fill-opacity:1;stroke-width:0.26458332"
           id="path1275"
           inkscape:connector-curvature="0" />
        <path
           d="m -158.64876,237.63253 q -0.12919,0 -0.22738,-0.0207 -0.0775,0.15503 -0.18603,0.28939 -0.10853,0.12919 -0.25322,0.22738 -0.13953,0.0982 -0.31523,0.15503 -0.1757,0.0568 -0.3824,0.0568 -0.24288,0 -0.44442,-0.0879 -0.20154,-0.0827 -0.3514,-0.23254 -0.14986,-0.15503 -0.23254,-0.36691 -0.0827,-0.21704 -0.0827,-0.47542 0,-0.33073 0.11885,-0.57361 0.11886,-0.24805 0.27389,-0.40824 0.15503,-0.16537 0.31006,-0.24288 0.15502,-0.0827 0.23254,-0.0827 0.0879,0 0.12919,0.0465 0.0465,0.0465 0.0465,0.12402 0,0.0879 -0.0568,0.13436 -0.0517,0.0413 -0.13436,0.0827 -0.0827,0.0413 -0.1757,0.11886 -0.093,0.0723 -0.1757,0.18603 -0.0775,0.11369 -0.12919,0.26872 -0.0517,0.15503 -0.0517,0.34623 0,0.17053 0.0517,0.32039 0.0517,0.1447 0.14986,0.25322 0.0982,0.10335 0.23254,0.16536 0.13436,0.0568 0.29972,0.0568 0.29456,0 0.48576,-0.13436 0.19637,-0.13953 0.29973,-0.3514 -0.30489,-0.1602 -0.50127,-0.45475 -0.19637,-0.29456 -0.19637,-0.66146 0,-0.29456 0.13953,-0.48059 0.14469,-0.18604 0.37724,-0.18604 0.13953,0 0.26355,0.0672 0.12402,0.0672 0.21704,0.21187 0.0982,0.1447 0.15503,0.37207 0.0568,0.22738 0.0568,0.54261 0,0.16536 -0.0413,0.34623 0.031,0.005 0.062,0.005 0.031,0 0.0672,0 0.1757,0 0.31523,-0.0413 0.13953,-0.0413 0.25321,-0.12403 0.11369,-0.0827 0.20154,-0.21187 0.093,-0.12919 0.1757,-0.29972 0.0155,-0.031 0.0672,-0.0568 0.0517,-0.031 0.10335,-0.031 0.0672,0 0.12403,0.0568 0.062,0.0517 0.062,0.13953 0,0.0413 -0.0207,0.093 -0.0207,0.0465 -0.0413,0.0879 -0.0879,0.15503 -0.20671,0.29973 -0.11369,0.13952 -0.27388,0.24804 -0.15503,0.10336 -0.3514,0.16537 -0.19637,0.062 -0.43925,0.0568 z m -0.88367,-1.30224 q 0,0.0982 0.0258,0.2067 0.0258,0.10852 0.0775,0.21704 0.0568,0.10336 0.13436,0.20154 0.0827,0.093 0.1912,0.1602 0.0155,-0.10852 0.0155,-0.21187 0,-0.13953 -0.0207,-0.28423 -0.0207,-0.14469 -0.062,-0.26355 -0.0362,-0.12402 -0.093,-0.19637 -0.0568,-0.0775 -0.13436,-0.0775 -0.031,0 -0.0827,0.0465 -0.0517,0.0465 -0.0517,0.20154 z"
           style="font-style:normal;font-variant:normal;font-weight:normal;font-stretch:normal;font-family:Sacramento;-inkscape-font-specification:Sacramento;fill:#ff8383;fill-opacity:1;stroke-width:0.26458332"
           id="path1277"
           inkscape:connector-curvature="0" />
        <path
           d="m -157.10881,236.28895 q -0.031,0.0827 -0.0775,0.18603 -0.0413,0.10335 -0.0982,0.21704 -0.0465,0.0878 -0.0982,0.13953 -0.0465,0.0465 -0.12402,0.0465 -0.0879,0 -0.13953,-0.0517 -0.0517,-0.0568 -0.0517,-0.12919 0,-0.0258 0.005,-0.0413 0.005,-0.0207 0.0258,-0.062 0.13436,-0.25839 0.19637,-0.44959 0.0672,-0.19637 0.10852,-0.40824 -0.0362,-0.11886 -0.0517,-0.20154 -0.0155,-0.0827 -0.0155,-0.17053 0,-0.17053 0.0724,-0.27389 0.0723,-0.10852 0.20154,-0.10852 0.11885,0 0.18603,0.10335 0.0724,0.10336 0.0724,0.25322 0,0.0827 -0.0155,0.16536 -0.0155,0.0827 -0.0413,0.20671 0.11886,0.29456 0.23772,0.52193 0.11885,0.22738 0.21187,0.41858 0.093,0.18604 0.14986,0.3514 0.062,0.16536 0.062,0.33073 0,0.21704 -0.0879,0.41341 -0.0879,0.19637 -0.28939,0.33073 0.0258,0.005 0.0517,0.005 0.0258,0 0.0517,0 0.29455,0 0.5426,-0.13436 0.24805,-0.13436 0.44442,-0.34623 0.20154,-0.21704 0.35656,-0.47543 0.15503,-0.26355 0.26872,-0.52193 0.0517,-0.11885 0.1447,-0.11885 0.0879,0 0.13435,0.062 0.0517,0.062 0.0517,0.13436 0,0.0413 -0.0155,0.0775 -0.0568,0.13953 -0.14986,0.32039 -0.0879,0.1757 -0.21704,0.36691 -0.12403,0.18603 -0.28939,0.3669 -0.16537,0.18087 -0.37207,0.32556 -0.20154,0.13953 -0.44442,0.22221 -0.24288,0.0879 -0.53227,0.0879 -0.34623,0 -0.64595,-0.12402 -0.29456,-0.11886 -0.48059,-0.39791 -0.031,-0.0465 -0.031,-0.0982 0,-0.0775 0.0568,-0.13436 0.062,-0.062 0.13953,-0.062 0.0827,0 0.13953,0.0568 0.005,0.0103 0.0362,0.0362 0.031,0.0207 0.0724,0.0517 0.0465,0.0258 0.10335,0.0465 0.062,0.0207 0.12402,0.0207 0.12403,0 0.20671,-0.0517 0.0879,-0.0517 0.13953,-0.12402 0.0517,-0.0775 0.0723,-0.1602 0.0258,-0.0879 0.0258,-0.14986 0,-0.12919 -0.0413,-0.25838 -0.0413,-0.1292 -0.10852,-0.25839 -0.062,-0.12919 -0.13953,-0.26355 -0.0723,-0.13952 -0.13436,-0.28938 z"
           style="font-style:normal;font-variant:normal;font-weight:normal;font-stretch:normal;font-family:Sacramento;-inkscape-font-specification:Sacramento;fill:#ff8383;fill-opacity:1;stroke-width:0.26458332"
           id="path1279"
           inkscape:connector-curvature="0" />
      </g>
    </g>
    <g
       transform="translate(77.227318,46.021332)"
       id="g1305"
       style="fill:#ff1983;fill-opacity:1">
      <path
         style="fill:#ff1983;fill-opacity:1;fill-rule:evenodd"
         inkscape:connector-curvature="0"
         d="m 149.76467,51.091697 c 0.55348,0.346994 1.21287,0.611276 1.98587,0.829647 0.31033,0.08767 0.34004,0.09521 1.18762,0.306024 2.84101,0.706629 4.04862,1.447463 4.47612,3.584967 0.61276,3.063767 -2.14163,4.763997 -6.77106,5.621307 -1.36279,0.25236 -2.81421,0.41363 -4.26433,0.50315 -0.37773,0.0233 -0.73553,0.0404 -1.0686,0.0523 -0.0791,0.53749 -0.17627,1.12873 -0.29278,1.76131 -0.36114,1.96074 -0.83281,3.92264 -1.42999,5.76147 -1.38832,4.27486 -3.22983,7.26598 -5.74002,8.40698 -5.70231,2.59196 -11.12635,0.79129 -17.12091,-5.20326 -6.01456,-6.01456 -7.80801,-11.39045 -5.20326,-17.120913 1.15135,-2.53297 4.31248,-4.536783 8.88586,-6.199866 1.93992,-0.705437 4.01118,-1.299992 6.08147,-1.788555 0.71465,-0.168648 1.37929,-0.312622 1.97777,-0.432316 0.0296,-0.443119 0.0769,-0.926492 0.14554,-1.441374 0.22457,-1.684271 0.62927,-3.370525 1.26325,-4.955477 0.69822,-1.74553 1.63569,-3.262032 2.84937,-4.475716 4.26069,-4.260691 8.47068,-3.025137 10.05186,2.94814 L 161.4337,24.594238 v -3.585786 c 0,-0.265216 0.10536,-0.51957 0.29289,-0.707107 l 7,-7 c 0.39053,-0.390524 1.02369,-0.390524 1.41422,0 l 10,10 c 0.39052,0.390525 0.39052,1.023689 0,1.414214 l -7,7 c -0.18754,0.187536 -0.44189,0.292893 -0.70711,0.292893 h -3.58579 z m -2.33097,-6.083245 c 0,2.087661 0.33126,3.58361 0.9469,4.638892 l 19.34599,-19.345999 c 0.18754,-0.187536 0.44189,-0.292893 0.70711,-0.292893 h 3.58579 l 6,-6 -8.58579,-8.585786 -6,6 v 3.585786 c 0,0.265216 -0.10536,0.51957 -0.29289,0.707107 l -15.88903,15.889023 c 0.12072,1.035083 0.18192,2.17008 0.18192,3.40387 z m -30.08963,11.4138 c -2.20409,4.84899 -0.68756,9.3948 4.79674,14.87909 5.46395,5.46395 10.05681,6.98869 14.87909,4.79674 1.84673,-0.83942 3.43766,-3.42353 4.66542,-7.204 0.56712,-1.74627 1.01893,-3.62555 1.36527,-5.50598 0.12135,-0.65888 0.22074,-1.27027 0.29962,-1.81798 0.047,-0.32599 0.0764,-0.55631 0.0899,-0.67483 0.0576,-0.50523 0.48509,-0.88684 0.99359,-0.88684 0.0856,0 0.25344,-0.002 0.49154,-0.008 0.40071,-0.0106 0.84817,-0.0297 1.33042,-0.0595 1.37523,-0.0849 2.74918,-0.23755 4.02339,-0.47352 3.60925,-0.66838 5.46392,-1.81324 5.17407,-3.2625 -0.2236,-1.118023 -0.8496,-1.502051 -2.9977,-2.036338 -0.29926,-0.07409 -0.45737,-0.113364 -0.60975,-0.152056 -0.23808,-0.06045 -0.44208,-0.114573 -0.63884,-0.17016 -3.86473,-1.092137 -5.77313,-3.415849 -5.77313,-8.837926 0,-9.099869 -3.33925,-11.246533 -7.29289,-7.292893 -1.00632,1.006316 -1.80285,2.294814 -2.40663,3.804284 -0.56652,1.416297 -0.93357,2.945669 -1.13775,4.477023 -0.0716,0.536817 -0.11751,1.034429 -0.14292,1.479105 -0.015,0.261705 -0.0198,0.443739 -0.0198,0.532481 0,0.486821 -0.35057,0.902907 -0.83034,0.985502 -0.12724,0.02191 -0.37299,0.06735 -0.72018,0.13662 -0.58255,0.116227 -1.23264,0.256874 -1.93316,0.422187 -1.99975,0.471916 -3.99854,1.045666 -5.85733,1.721604 -4.09724,1.489935 -6.89085,3.260785 -7.74862,5.147887 z m 9.38252,6.29331 c -0.39052,-0.39053 -0.39052,-1.02369 0,-1.41422 0.39053,-0.39052 1.02369,-0.39052 1.41422,0 l 4,4 c 0.39052,0.39053 0.39052,1.02369 0,1.41422 -0.39053,0.39052 -1.02369,0.39052 -1.41422,0 z m 5,-5 c -0.39052,-0.39053 -0.39052,-1.02369 0,-1.41422 0.39053,-0.390521 1.02369,-0.390521 1.41422,0 l 4,4 c 0.39052,0.39053 0.39052,1.02369 0,1.41422 -0.39053,0.39052 -1.02369,0.39052 -1.41422,0 z"
         id="path1285"
         transform="matrix(0.26458333,0,0,0.26458333,-105.46893,202.83164)" />
      <g
         transform="translate(92.978617,-8.1739885)"
         id="g1303"
         style="font-style:normal;font-weight:normal;font-size:10.58333302px;line-height:1.25;font-family:sans-serif;letter-spacing:0px;word-spacing:0px;fill:#ff1983;fill-opacity:1;stroke:none;stroke-width:0.26458332"
         aria-label="guitaros">
        <path
           inkscape:connector-curvature="0"
           id="path1287"
           style="font-style:normal;font-variant:normal;font-weight:normal;font-stretch:normal;font-family:Sacramento;-inkscape-font-specification:Sacramento;fill:#ff1983;fill-opacity:1;stroke-width:0.26458332"
           d="m -177.63985,238.7074 q 0.97151,-1.26607 1.34875,-2.10323 0.0258,-0.0568 0.0672,-0.0827 0.0465,-0.031 0.10336,-0.031 0.0879,0 0.14469,0.062 0.0568,0.0568 0.0568,0.13435 0,0.0362 -0.0155,0.0724 -0.22738,0.51677 -0.64596,1.15239 -0.41857,0.63562 -1.05936,1.4366 0,0.32556 0.005,0.65112 0.005,0.32556 0.005,0.71314 0,0.38757 -0.0207,0.76481 -0.0155,0.3824 -0.062,0.72347 -0.0465,0.34623 -0.12919,0.63562 -0.0775,0.29456 -0.20671,0.50643 -0.12402,0.21704 -0.30489,0.3359 -0.1757,0.12402 -0.41858,0.12402 -0.34623,0 -0.53226,-0.26355 -0.18604,-0.26355 -0.18604,-0.74931 0,-0.25838 0.0465,-0.56327 0.0517,-0.29973 0.14469,-0.62012 0.093,-0.32039 0.22221,-0.65112 0.13436,-0.32556 0.29456,-0.63562 0.1602,-0.31006 0.34623,-0.59428 0.1912,-0.28422 0.40308,-0.51677 0.005,-0.36173 0.005,-0.7183 0.005,-0.35657 0.0155,-0.65629 -0.15503,0.19637 -0.37207,0.31006 -0.21188,0.11369 -0.42375,0.11369 -0.18087,0 -0.33073,-0.0672 -0.14469,-0.0724 -0.24805,-0.19637 -0.10335,-0.12919 -0.16019,-0.29973 -0.0568,-0.17053 -0.0568,-0.37207 0,-0.40307 0.13436,-0.70796 0.13953,-0.31006 0.3514,-0.51677 0.21188,-0.2067 0.46509,-0.31006 0.25838,-0.10335 0.49609,-0.10335 0.1602,0 0.29456,0.0413 0.13436,0.0413 0.22738,0.093 0.0982,0.0517 0.14986,0.0982 0.0517,0.0465 0.0568,0.0517 0.0568,0.062 0.0568,0.13953 0,0.0775 -0.0568,0.13952 -0.0568,0.0568 -0.13436,0.0568 -0.0723,0 -0.13952,-0.0568 -0.0207,-0.0155 -0.0568,-0.0413 -0.031,-0.031 -0.0879,-0.062 -0.0517,-0.031 -0.12919,-0.0517 -0.0724,-0.0207 -0.1757,-0.0207 -0.15503,0 -0.34106,0.0724 -0.18604,0.0672 -0.34624,0.21704 -0.16019,0.14986 -0.26871,0.38758 -0.10852,0.23254 -0.10852,0.56327 0,0.24805 0.10852,0.40308 0.10852,0.14986 0.33589,0.14986 0.10852,0 0.22738,-0.062 0.12402,-0.062 0.23771,-0.1912 0.11369,-0.12919 0.19637,-0.32556 0.0879,-0.19637 0.12403,-0.46509 0.0103,-0.0723 0.0672,-0.11885 0.0568,-0.0517 0.13435,-0.0517 0.0879,0 0.13436,0.062 0.0517,0.062 0.0517,0.13953 0,0.005 -0.005,0.1602 -0.005,0.14986 -0.0103,0.40307 -0.005,0.25322 -0.0155,0.58911 -0.005,0.33073 -0.0103,0.7028 z m -0.39274,1.13172 q -0.24288,0.33589 -0.43925,0.72863 -0.19637,0.39791 -0.3359,0.80099 -0.13953,0.40307 -0.21704,0.78031 -0.0724,0.38241 -0.0724,0.68213 0,0.1912 0.031,0.30489 0.0362,0.11369 0.0827,0.1757 0.0517,0.062 0.10852,0.0827 0.062,0.0207 0.11369,0.0207 0.1602,0 0.27905,-0.1292 0.11886,-0.12919 0.20154,-0.34623 0.0827,-0.21187 0.13436,-0.49092 0.0517,-0.27906 0.0775,-0.57878 0.0258,-0.29456 0.0362,-0.58911 0.0103,-0.29456 0.0103,-0.5426 0,-0.22221 0,-0.44442 0,-0.22221 -0.0103,-0.45475 z" />
        <path
           inkscape:connector-curvature="0"
           id="path1289"
           style="font-style:normal;font-variant:normal;font-weight:normal;font-stretch:normal;font-family:Sacramento;-inkscape-font-specification:Sacramento;fill:#ff1983;fill-opacity:1;stroke-width:0.26458332"
           d="m -174.57027,237.6222 q -0.18087,0.29455 -0.42375,0.46509 -0.23771,0.17053 -0.48059,0.17053 -0.19637,0 -0.3514,-0.0724 -0.15503,-0.0724 -0.26872,-0.20154 -0.11368,-0.13436 -0.1757,-0.32039 -0.0568,-0.18604 -0.0568,-0.41858 0,-0.36174 0.0672,-0.64079 0.0724,-0.27905 0.15503,-0.46509 0.0827,-0.1912 0.15503,-0.28938 0.0723,-0.0982 0.0723,-0.0982 0.0258,-0.031 0.062,-0.0465 0.0413,-0.0155 0.0827,-0.0155 0.0827,0 0.13436,0.062 0.0568,0.0568 0.0568,0.13436 0,0.031 -0.0155,0.062 -0.0103,0.031 -0.0258,0.062 -0.0258,0.0465 -0.0827,0.1447 -0.0568,0.093 -0.11886,0.24804 -0.062,0.15503 -0.10852,0.36691 -0.0465,0.2067 -0.0465,0.47542 0,0.30489 0.11886,0.46509 0.12402,0.15503 0.34623,0.15503 0.093,0 0.21187,-0.0568 0.12403,-0.062 0.23772,-0.18603 0.11885,-0.12403 0.2067,-0.31523 0.0879,-0.1912 0.11369,-0.44958 l 0.0775,-0.88884 q 0.0103,-0.0775 0.0672,-0.12919 0.0569,-0.0517 0.13436,-0.0517 0.0879,0 0.13953,0.0672 0.0517,0.062 0.0517,0.1447 l -0.0672,0.85783 q -0.0103,0.10852 0.005,0.28422 0.0207,0.1757 0.0775,0.34623 0.0568,0.17053 0.17053,0.29455 0.11369,0.11886 0.29972,0.11886 0.13436,0 0.26355,-0.0672 0.12919,-0.0724 0.24805,-0.18603 0.11886,-0.11369 0.21704,-0.25322 0.10335,-0.14469 0.18604,-0.28939 0.0879,-0.14469 0.14986,-0.27388 0.062,-0.13436 0.10335,-0.22738 0.0258,-0.0568 0.0724,-0.0879 0.0465,-0.031 0.10335,-0.031 0.093,0 0.14469,0.062 0.0517,0.062 0.0517,0.13436 0,0.0413 -0.0155,0.0775 -0.0207,0.0413 -0.0827,0.1757 -0.0568,0.12919 -0.15503,0.29972 -0.093,0.16537 -0.22738,0.3514 -0.13436,0.18604 -0.29972,0.34624 -0.16537,0.15503 -0.36174,0.25838 -0.1912,0.0982 -0.41341,0.0982 -0.30489,0 -0.50643,-0.17053 -0.20154,-0.1757 -0.29972,-0.49609 z" />
        <path
           inkscape:connector-curvature="0"
           id="path1291"
           style="font-style:normal;font-variant:normal;font-weight:normal;font-stretch:normal;font-family:Sacramento;-inkscape-font-specification:Sacramento;fill:#ff1983;fill-opacity:1;stroke-width:0.26458332"
           d="m -171.74357,234.14437 q 0,0.19637 -0.13953,0.3359 -0.13436,0.13436 -0.33073,0.13436 -0.19637,0 -0.33589,-0.13436 -0.13436,-0.13953 -0.13436,-0.3359 0,-0.0982 0.0362,-0.18086 0.0362,-0.0879 0.0982,-0.14987 0.0672,-0.0672 0.14986,-0.10335 0.0879,-0.0362 0.18603,-0.0362 0.0982,0 0.18087,0.0362 0.0879,0.0362 0.14986,0.10335 0.0672,0.062 0.10336,0.14987 0.0362,0.0827 0.0362,0.18086 z m -0.83716,3.02824 q 0,-0.74414 0.093,-1.48311 0.0103,-0.0724 0.062,-0.12402 0.0568,-0.0568 0.14469,-0.0568 0.0775,0 0.12919,0.062 0.0517,0.0568 0.0517,0.13436 0,0.031 -0.0155,0.18604 -0.0103,0.15503 -0.031,0.37207 -0.0155,0.21187 -0.031,0.45475 -0.0103,0.23771 -0.0103,0.43925 0,0.27388 0.0517,0.44442 0.0568,0.16536 0.13952,0.25838 0.0879,0.093 0.18087,0.12402 0.0982,0.031 0.18604,0.031 0.14469,0 0.29972,-0.10335 0.15503,-0.10336 0.31523,-0.28939 0.16536,-0.18604 0.33073,-0.44442 0.16536,-0.26355 0.32556,-0.58394 0.0258,-0.0517 0.0723,-0.0775 0.0465,-0.031 0.10336,-0.031 0.0827,0 0.13436,0.062 0.0568,0.062 0.0568,0.13436 0,0.0517 -0.0207,0.0879 -0.062,0.11885 -0.15503,0.28938 -0.093,0.17054 -0.21187,0.3514 -0.11886,0.18087 -0.26355,0.36174 -0.13953,0.1757 -0.29973,0.32039 -0.16019,0.13953 -0.33589,0.22738 -0.1757,0.0879 -0.35657,0.0879 -0.23254,0 -0.40824,-0.0982 -0.1757,-0.0982 -0.29973,-0.26355 -0.11885,-0.16536 -0.18087,-0.38757 -0.0568,-0.22738 -0.0568,-0.48576 z m 0.54777,-3.02824 q 0,-0.0723 -0.0568,-0.12402 -0.0517,-0.0568 -0.12403,-0.0568 -0.0723,0 -0.12402,0.0568 -0.0517,0.0517 -0.0517,0.12402 0,0.0724 0.0517,0.12403 0.0517,0.0517 0.12402,0.0517 0.0724,0 0.12403,-0.0517 0.0568,-0.0517 0.0568,-0.12403 z" />
        <path
           inkscape:connector-curvature="0"
           id="path1293"
           style="font-style:normal;font-variant:normal;font-weight:normal;font-stretch:normal;font-family:Sacramento;-inkscape-font-specification:Sacramento;fill:#ff1983;fill-opacity:1;stroke-width:0.26458332"
           d="m -166.16768,233.02816 q 0,0.0827 -0.0568,0.13436 -0.0568,0.0465 -0.13952,0.0465 h -2.62 v 0.0568 q 0,0.31523 -0.0465,0.6718 -0.0465,0.35657 -0.12919,0.71313 -0.0775,0.3514 -0.18087,0.6873 -0.0982,0.3359 -0.2067,0.62012 -0.10336,0.28422 -0.20671,0.49609 -0.10335,0.20671 -0.18603,0.31006 0.0672,0.23771 0.16019,0.44442 0.093,0.20153 0.20671,0.35656 0.11885,0.14987 0.25321,0.23771 0.13436,0.0879 0.28939,0.0879 0.18087,0 0.35657,-0.14986 0.18087,-0.15503 0.33073,-0.36173 0.15503,-0.21188 0.26872,-0.42375 0.11885,-0.21704 0.17053,-0.34623 0.0517,-0.12402 0.18087,-0.12402 0.0878,0 0.13952,0.062 0.0568,0.062 0.0568,0.13436 0,0.0362 -0.0155,0.0723 -0.0155,0.0362 -0.0775,0.16537 -0.0568,0.12919 -0.15503,0.29972 -0.093,0.17053 -0.22221,0.36174 -0.12402,0.18603 -0.28422,0.34106 -0.15503,0.15503 -0.3359,0.25838 -0.18086,0.10336 -0.3824,0.10336 -0.35657,0 -0.64079,-0.23255 -0.28422,-0.23254 -0.48576,-0.65112 -0.19637,-0.41858 -0.29972,-0.99219 -0.10336,-0.57361 -0.10336,-1.25574 0,-0.17053 0.005,-0.3979 0.005,-0.23255 0.0207,-0.48576 0.0155,-0.25839 0.0465,-0.5271 0.031,-0.27389 0.0827,-0.53227 h -1.85518 q -0.0827,0 -0.13953,-0.0465 -0.0568,-0.0517 -0.0568,-0.13436 0,-0.0827 0.0568,-0.12919 0.0569,-0.0517 0.13953,-0.0517 h 1.94303 q 0.0517,-0.18604 0.11886,-0.34107 0.0724,-0.15503 0.1602,-0.26872 0.093,-0.11368 0.20153,-0.1757 0.11369,-0.0672 0.24805,-0.0672 0.12919,0 0.22221,0.0672 0.0982,0.062 0.16537,0.1757 0.0672,0.11369 0.10335,0.26872 0.0413,0.15503 0.062,0.34107 h 2.64067 q 0.0827,0 0.13952,0.0517 0.0568,0.0465 0.0568,0.12919 z m -3.89124,3.21944 q 0.15503,-0.34106 0.27905,-0.7338 0.12919,-0.39791 0.21704,-0.80099 0.093,-0.40307 0.13953,-0.79064 0.0517,-0.38758 0.0517,-0.71314 h -0.60978 q -0.0724,0.32039 -0.11886,0.79582 -0.0413,0.47025 -0.0413,1.14721 0,0.37724 0.0207,0.63562 0.0207,0.25322 0.062,0.45992 z m 0.48059,-3.86539 q -0.0465,0 -0.13436,0.10335 -0.0879,0.0982 -0.1757,0.36174 h 0.4961 q -0.0258,-0.21705 -0.0775,-0.34107 -0.0465,-0.12402 -0.10852,-0.12402 z m -0.39791,4.23746 v 0.005 z" />
        <path
           inkscape:connector-curvature="0"
           id="path1295"
           style="font-style:normal;font-variant:normal;font-weight:normal;font-stretch:normal;font-family:Sacramento;-inkscape-font-specification:Sacramento;fill:#ff1983;fill-opacity:1;stroke-width:0.26458332"
           d="m -163.87842,236.7592 q -0.0207,0.0413 -0.0879,0.1757 -0.062,0.12919 -0.16536,0.29972 -0.0982,0.17054 -0.23255,0.35657 -0.13436,0.18604 -0.29972,0.34107 -0.16536,0.15503 -0.35657,0.25838 -0.1912,0.0982 -0.40307,0.0982 -0.29973,0 -0.50643,-0.1912 -0.20154,-0.1912 -0.29456,-0.48059 -0.1757,0.29456 -0.41858,0.47026 -0.24288,0.17053 -0.48576,0.17053 -0.1912,0 -0.34623,-0.0672 -0.15503,-0.0724 -0.26355,-0.19637 -0.10852,-0.12919 -0.17053,-0.29973 -0.0568,-0.17053 -0.0568,-0.37207 0,-0.40307 0.13435,-0.70796 0.13953,-0.31006 0.3514,-0.51677 0.21188,-0.2067 0.46509,-0.31006 0.25838,-0.10335 0.4961,-0.10335 0.16019,0 0.29455,0.0465 0.13436,0.0413 0.22738,0.093 0.0982,0.0517 0.14986,0.0982 0.0517,0.0413 0.0568,0.0465 0.0568,0.0672 0.0568,0.13953 0,0.0775 -0.0568,0.13952 -0.0568,0.0568 -0.13436,0.0568 -0.0827,0 -0.13952,-0.0568 -0.0103,-0.0103 -0.0465,-0.0362 -0.0362,-0.031 -0.0982,-0.062 -0.062,-0.031 -0.14986,-0.0517 -0.0827,-0.0258 -0.1912,-0.0258 -0.1602,0 -0.34106,0.0724 -0.18087,0.0724 -0.33073,0.22738 -0.14987,0.14986 -0.25322,0.3824 -0.0982,0.22738 -0.0982,0.54261 0,0.0982 0.0207,0.20153 0.0207,0.0982 0.0723,0.18087 0.0517,0.0827 0.13953,0.13436 0.0879,0.0517 0.21704,0.0517 0.093,0 0.21188,-0.062 0.12402,-0.062 0.23254,-0.1912 0.11369,-0.12919 0.20154,-0.32556 0.093,-0.19637 0.12919,-0.46509 0.0103,-0.0723 0.0672,-0.11885 0.0568,-0.0517 0.13436,-0.0517 0.0723,0 0.12402,0.0568 0.0568,0.0569 0.062,0.1292 0.005,0.0982 0.0207,0.27905 0.0155,0.1757 0.0672,0.3514 0.0568,0.1757 0.16537,0.30489 0.10852,0.12919 0.29972,0.12919 0.12402,0 0.24288,-0.0672 0.12402,-0.0672 0.23771,-0.1757 0.11886,-0.11369 0.22221,-0.25321 0.10852,-0.1447 0.19637,-0.28939 0.0879,-0.1447 0.15503,-0.27905 0.0672,-0.13436 0.11369,-0.23255 0.0258,-0.0568 0.0723,-0.0879 0.0517,-0.031 0.10852,-0.031 0.0879,0 0.13953,0.0672 0.0568,0.062 0.0568,0.13435 0,0.0362 -0.0155,0.0724 z" />
        <path
           inkscape:connector-curvature="0"
           id="path1297"
           style="font-style:normal;font-variant:normal;font-weight:normal;font-stretch:normal;font-family:Sacramento;-inkscape-font-specification:Sacramento;fill:#ff1983;fill-opacity:1;stroke-width:0.26458332"
           d="m -163.69238,236.07707 q -0.0207,0.13953 -0.0517,0.26355 -0.031,0.11886 -0.062,0.21188 -0.0258,0.0879 -0.0465,0.14469 -0.0207,0.0568 -0.0258,0.062 -0.0517,0.11886 -0.18087,0.11886 -0.0723,0 -0.13435,-0.0517 -0.062,-0.0568 -0.062,-0.13953 0,-0.031 0.0103,-0.0465 0.0103,-0.0155 0.031,-0.062 0.0207,-0.0465 0.0517,-0.15503 0.031,-0.10852 0.0775,-0.33589 -0.0879,0 -0.18087,-0.005 -0.093,-0.005 -0.17053,-0.0362 -0.0827,-0.031 -0.13436,-0.0982 -0.0517,-0.0672 -0.0517,-0.18603 0,-0.0879 0.0517,-0.23772 0.0465,-0.14986 0.12919,-0.29455 0.0827,-0.1447 0.18603,-0.24805 0.10336,-0.10852 0.20671,-0.10852 0.11885,0 0.1912,0.0879 0.0775,0.0879 0.11886,0.21704 0.0413,0.12403 0.0568,0.26355 0.0207,0.13953 0.0207,0.24288 0.0879,0 0.17053,0 0.0879,-0.005 0.16537,-0.005 0.29455,0 0.44958,0.12919 0.15503,0.1292 0.15503,0.42375 0,0.11886 -0.0155,0.24805 -0.0155,0.12919 -0.0362,0.26872 -0.0207,0.13435 -0.0362,0.26871 -0.0155,0.13436 -0.0155,0.26355 0,0.18604 0.0517,0.31006 0.0517,0.11886 0.12919,0.1912 0.0775,0.0724 0.16536,0.10336 0.0879,0.0258 0.1602,0.0258 0.22221,0 0.41858,-0.1447 0.19637,-0.14469 0.36173,-0.34623 0.16537,-0.20671 0.29456,-0.43408 0.13436,-0.22738 0.22221,-0.39791 0.0258,-0.0465 0.0724,-0.0724 0.0465,-0.0258 0.0982,-0.0258 0.093,0 0.14469,0.062 0.0517,0.0568 0.0517,0.12919 0,0.0517 -0.0207,0.093 -0.11886,0.21188 -0.27905,0.48059 -0.15503,0.26355 -0.35657,0.4961 -0.20154,0.23254 -0.45475,0.39274 -0.24805,0.1602 -0.54777,0.1602 -0.18604,0 -0.3514,-0.0724 -0.16537,-0.0672 -0.28939,-0.19637 -0.11886,-0.13436 -0.1912,-0.32556 -0.0724,-0.19637 -0.0724,-0.43925 0,-0.25838 0.0517,-0.5116 0.0517,-0.25838 0.0517,-0.49092 0,-0.0982 -0.0465,-0.1447 -0.0413,-0.0517 -0.1912,-0.0517 -0.0724,0 -0.1602,0 -0.0827,0 -0.18086,0.005 z m -0.34624,-0.3824 q 0,-0.0362 -0.005,-0.093 0,-0.062 -0.0103,-0.11886 -0.005,-0.0568 -0.0207,-0.0982 -0.0103,-0.0413 -0.0258,-0.0413 -0.0155,0 -0.0413,0.0413 -0.0207,0.0362 -0.0465,0.093 -0.0258,0.0517 -0.0465,0.11368 -0.0207,0.062 -0.031,0.10336 z" />
        <path
           inkscape:connector-curvature="0"
           id="path1299"
           style="font-style:normal;font-variant:normal;font-weight:normal;font-stretch:normal;font-family:Sacramento;-inkscape-font-specification:Sacramento;fill:#ff1983;fill-opacity:1;stroke-width:0.26458332"
           d="m -158.64876,237.63253 q -0.12919,0 -0.22738,-0.0207 -0.0775,0.15503 -0.18603,0.28939 -0.10853,0.12919 -0.25322,0.22738 -0.13953,0.0982 -0.31523,0.15503 -0.1757,0.0568 -0.3824,0.0568 -0.24288,0 -0.44442,-0.0879 -0.20154,-0.0827 -0.3514,-0.23254 -0.14986,-0.15503 -0.23254,-0.36691 -0.0827,-0.21704 -0.0827,-0.47542 0,-0.33073 0.11885,-0.57361 0.11886,-0.24805 0.27389,-0.40824 0.15503,-0.16537 0.31006,-0.24288 0.15502,-0.0827 0.23254,-0.0827 0.0879,0 0.12919,0.0465 0.0465,0.0465 0.0465,0.12402 0,0.0879 -0.0568,0.13436 -0.0517,0.0413 -0.13436,0.0827 -0.0827,0.0413 -0.1757,0.11886 -0.093,0.0723 -0.1757,0.18603 -0.0775,0.11369 -0.12919,0.26872 -0.0517,0.15503 -0.0517,0.34623 0,0.17053 0.0517,0.32039 0.0517,0.1447 0.14986,0.25322 0.0982,0.10335 0.23254,0.16536 0.13436,0.0568 0.29972,0.0568 0.29456,0 0.48576,-0.13436 0.19637,-0.13953 0.29973,-0.3514 -0.30489,-0.1602 -0.50127,-0.45475 -0.19637,-0.29456 -0.19637,-0.66146 0,-0.29456 0.13953,-0.48059 0.14469,-0.18604 0.37724,-0.18604 0.13953,0 0.26355,0.0672 0.12402,0.0672 0.21704,0.21187 0.0982,0.1447 0.15503,0.37207 0.0568,0.22738 0.0568,0.54261 0,0.16536 -0.0413,0.34623 0.031,0.005 0.062,0.005 0.031,0 0.0672,0 0.1757,0 0.31523,-0.0413 0.13953,-0.0413 0.25321,-0.12403 0.11369,-0.0827 0.20154,-0.21187 0.093,-0.12919 0.1757,-0.29972 0.0155,-0.031 0.0672,-0.0568 0.0517,-0.031 0.10335,-0.031 0.0672,0 0.12403,0.0568 0.062,0.0517 0.062,0.13953 0,0.0413 -0.0207,0.093 -0.0207,0.0465 -0.0413,0.0879 -0.0879,0.15503 -0.20671,0.29973 -0.11369,0.13952 -0.27388,0.24804 -0.15503,0.10336 -0.3514,0.16537 -0.19637,0.062 -0.43925,0.0568 z m -0.88367,-1.30224 q 0,0.0982 0.0258,0.2067 0.0258,0.10852 0.0775,0.21704 0.0568,0.10336 0.13436,0.20154 0.0827,0.093 0.1912,0.1602 0.0155,-0.10852 0.0155,-0.21187 0,-0.13953 -0.0207,-0.28423 -0.0207,-0.14469 -0.062,-0.26355 -0.0362,-0.12402 -0.093,-0.19637 -0.0568,-0.0775 -0.13436,-0.0775 -0.031,0 -0.0827,0.0465 -0.0517,0.0465 -0.0517,0.20154 z" />
        <path
           inkscape:connector-curvature="0"
           id="path1301"
           style="font-style:normal;font-variant:normal;font-weight:normal;font-stretch:normal;font-family:Sacramento;-inkscape-font-specification:Sacramento;fill:#ff1983;fill-opacity:1;stroke-width:0.26458332"
           d="m -157.10881,236.28895 q -0.031,0.0827 -0.0775,0.18603 -0.0413,0.10335 -0.0982,0.21704 -0.0465,0.0878 -0.0982,0.13953 -0.0465,0.0465 -0.12402,0.0465 -0.0879,0 -0.13953,-0.0517 -0.0517,-0.0568 -0.0517,-0.12919 0,-0.0258 0.005,-0.0413 0.005,-0.0207 0.0258,-0.062 0.13436,-0.25839 0.19637,-0.44959 0.0672,-0.19637 0.10852,-0.40824 -0.0362,-0.11886 -0.0517,-0.20154 -0.0155,-0.0827 -0.0155,-0.17053 0,-0.17053 0.0724,-0.27389 0.0723,-0.10852 0.20154,-0.10852 0.11885,0 0.18603,0.10335 0.0724,0.10336 0.0724,0.25322 0,0.0827 -0.0155,0.16536 -0.0155,0.0827 -0.0413,0.20671 0.11886,0.29456 0.23772,0.52193 0.11885,0.22738 0.21187,0.41858 0.093,0.18604 0.14986,0.3514 0.062,0.16536 0.062,0.33073 0,0.21704 -0.0879,0.41341 -0.0879,0.19637 -0.28939,0.33073 0.0258,0.005 0.0517,0.005 0.0258,0 0.0517,0 0.29455,0 0.5426,-0.13436 0.24805,-0.13436 0.44442,-0.34623 0.20154,-0.21704 0.35656,-0.47543 0.15503,-0.26355 0.26872,-0.52193 0.0517,-0.11885 0.1447,-0.11885 0.0879,0 0.13435,0.062 0.0517,0.062 0.0517,0.13436 0,0.0413 -0.0155,0.0775 -0.0568,0.13953 -0.14986,0.32039 -0.0879,0.1757 -0.21704,0.36691 -0.12403,0.18603 -0.28939,0.3669 -0.16537,0.18087 -0.37207,0.32556 -0.20154,0.13953 -0.44442,0.22221 -0.24288,0.0879 -0.53227,0.0879 -0.34623,0 -0.64595,-0.12402 -0.29456,-0.11886 -0.48059,-0.39791 -0.031,-0.0465 -0.031,-0.0982 0,-0.0775 0.0568,-0.13436 0.062,-0.062 0.13953,-0.062 0.0827,0 0.13953,0.0568 0.005,0.0103 0.0362,0.0362 0.031,0.0207 0.0724,0.0517 0.0465,0.0258 0.10335,0.0465 0.062,0.0207 0.12402,0.0207 0.12403,0 0.20671,-0.0517 0.0879,-0.0517 0.13953,-0.12402 0.0517,-0.0775 0.0723,-0.1602 0.0258,-0.0879 0.0258,-0.14986 0,-0.12919 -0.0413,-0.25838 -0.0413,-0.1292 -0.10852,-0.25839 -0.062,-0.12919 -0.13953,-0.26355 -0.0723,-0.13952 -0.13436,-0.28938 z" />
      </g>
    </g>
  </g>
</svg>
